<svg width="651" height="295" viewBox="0 0 651 295" fill="none" xmlns="http://www.w3.org/2000/svg">
<g filter="url(#filter0_d_98_340)">
<rect x="4.58032" y="7.36279" width="642.42" height="276.112" fill="#3FCCD3"/>
<g clip-path="url(#clip0_98_340)">
<path opacity="0.25" d="M473.748 153.004C463.684 142.94 447.384 142.923 437.34 152.967C427.297 163.01 427.313 179.31 437.377 189.374C447.441 199.438 463.742 199.455 473.785 189.412C483.828 179.368 483.812 163.068 473.748 153.004Z" fill="url(#paint0_linear_98_340)"/>
</g>
<g clip-path="url(#clip1_98_340)">
<path opacity="0.25" d="M491.127 41.7467C482.141 32.761 467.588 32.7461 458.62 41.7134C449.653 50.6807 449.668 65.2345 458.654 74.2202C467.639 83.2059 482.193 83.2208 491.16 74.2535C500.128 65.2861 500.113 50.7324 491.127 41.7467Z" fill="url(#paint1_linear_98_340)"/>
</g>
<g clip-path="url(#clip2_98_340)">
<path opacity="0.25" d="M309.339 158.345C301.047 169.333 303.215 184.949 314.181 193.225C325.147 201.5 340.758 199.301 349.051 188.312C357.343 177.324 355.176 161.707 344.21 153.432C333.244 145.157 317.632 147.356 309.339 158.345Z" fill="url(#paint2_linear_98_340)"/>
</g>
<g clip-path="url(#clip3_98_340)">
<path opacity="0.25" d="M202.741 214.09C214.821 229.163 236.807 231.608 251.848 219.553C266.89 207.498 269.291 185.507 257.211 170.435C245.131 155.363 223.145 152.917 208.104 164.972C193.062 177.027 190.661 199.018 202.741 214.09Z" fill="url(#paint3_linear_98_340)"/>
</g>
<g clip-path="url(#clip4_98_340)">
<path opacity="0.25" d="M21.799 24.9929C14.1659 35.1078 16.161 49.4827 26.2552 57.1001C36.3493 64.7176 50.7201 62.6931 58.3532 52.5782C65.9862 42.4634 63.9911 28.0885 53.897 20.471C43.8028 12.8535 29.432 14.8781 21.799 24.9929Z" fill="url(#paint4_linear_98_340)"/>
</g>
<g clip-path="url(#clip5_98_340)">
<path opacity="0.25" d="M50.0282 150.698C38.6159 145.19 24.9087 149.958 19.4124 161.347C13.9161 172.736 18.712 186.433 30.1243 191.941C41.5366 197.448 55.2437 192.681 60.74 181.292C66.2364 169.903 61.4405 156.205 50.0282 150.698Z" fill="url(#paint5_linear_98_340)"/>
</g>
<g clip-path="url(#clip6_98_340)">
<path opacity="0.25" d="M57.9122 87.0121C49.9661 77.1413 35.5389 75.568 25.6883 83.4979C15.8377 91.4278 14.2939 105.858 22.2401 115.729C30.1863 125.6 44.6134 127.173 54.464 119.243C64.3146 111.313 65.8584 96.8829 57.9122 87.0121Z" fill="url(#paint6_linear_98_340)"/>
</g>
<g clip-path="url(#clip7_98_340)">
<path opacity="0.25" d="M33.7234 255.903C45.8977 259.418 58.6112 252.419 62.1196 240.27C65.628 228.12 58.6029 215.421 46.4286 211.906C34.2543 208.39 21.5409 215.389 18.0324 227.539C14.524 239.688 21.5491 252.387 33.7234 255.903Z" fill="url(#paint7_linear_98_340)"/>
</g>
<g clip-path="url(#clip8_98_340)">
<path opacity="0.25" d="M112.058 21.4087C100.623 14.8067 86.0119 18.7056 79.4234 30.1172C72.835 41.5288 76.7638 56.1316 88.1988 62.7336C99.6337 69.3355 114.245 65.4366 120.833 54.025C127.422 42.6135 123.493 28.0106 112.058 21.4087Z" fill="url(#paint8_linear_98_340)"/>
</g>
<g clip-path="url(#clip9_98_340)">
<path opacity="0.25" d="M170.961 25.185C159.526 18.5831 144.915 22.482 138.327 33.8936C131.738 45.3051 135.667 59.908 147.102 66.5099C158.537 73.1119 173.148 69.213 179.736 57.8014C186.325 46.3898 182.396 31.787 170.961 25.185Z" fill="url(#paint9_linear_98_340)"/>
</g>
<g clip-path="url(#clip10_98_340)">
<path opacity="0.25" d="M180.165 85.9301C168.73 79.3282 154.119 83.2271 147.531 94.6387C140.942 106.05 144.871 120.653 156.306 127.255C167.741 133.857 182.352 129.958 188.94 118.547C195.529 107.135 191.6 92.5321 180.165 85.9301Z" fill="url(#paint10_linear_98_340)"/>
</g>
<g clip-path="url(#clip11_98_340)">
<path opacity="0.25" d="M382.647 25.185C371.212 18.5831 356.601 22.482 350.013 33.8936C343.424 45.3051 347.353 59.908 358.788 66.5099C370.223 73.1119 384.834 69.213 391.422 57.8014C398.011 46.3898 394.082 31.787 382.647 25.185Z" fill="url(#paint11_linear_98_340)"/>
</g>
<g clip-path="url(#clip12_98_340)">
<path opacity="0.25" d="M251.954 96.9741C240.519 90.3721 225.908 94.2711 219.32 105.683C212.731 117.094 216.66 131.697 228.095 138.299C239.53 144.901 254.141 141.002 260.729 129.59C267.318 118.179 263.389 103.576 251.954 96.9741Z" fill="url(#paint12_linear_98_340)"/>
</g>
<g clip-path="url(#clip13_98_340)">
<path opacity="0.25" d="M537.269 128.267C525.834 121.665 511.223 125.564 504.635 136.976C498.046 148.387 501.975 162.99 513.41 169.592C524.845 176.194 539.456 172.295 546.044 160.883C552.633 149.472 548.704 134.869 537.269 128.267Z" fill="url(#paint13_linear_98_340)"/>
</g>
<g clip-path="url(#clip14_98_340)">
<path opacity="0.25" d="M437.869 62.0005C426.434 55.3985 411.823 59.2974 405.235 70.709C398.646 82.1206 402.575 96.7234 414.01 103.325C425.445 109.927 440.056 106.028 446.644 94.6168C453.233 83.2053 449.304 68.6024 437.869 62.0005Z" fill="url(#paint14_linear_98_340)"/>
</g>
<g clip-path="url(#clip15_98_340)">
<path opacity="0.25" d="M305.336 109.86C293.901 103.258 279.29 107.157 272.701 118.568C266.113 129.98 270.042 144.583 281.477 151.185C292.912 157.787 307.522 153.888 314.111 142.476C320.699 131.065 316.77 116.462 305.336 109.86Z" fill="url(#paint15_linear_98_340)"/>
</g>
<g clip-path="url(#clip16_98_340)">
<path opacity="0.25" d="M428.665 174.286C417.23 167.684 402.62 171.583 396.031 182.994C389.443 194.406 393.371 209.009 404.806 215.611C416.241 222.213 430.852 218.314 437.441 206.902C444.029 195.49 440.1 180.888 428.665 174.286Z" fill="url(#paint16_linear_98_340)"/>
</g>
<g clip-path="url(#clip17_98_340)">
<path opacity="0.25" d="M353.195 174.286C341.76 167.684 327.149 171.583 320.561 182.994C313.972 194.406 317.901 209.009 329.336 215.611C340.771 222.213 355.382 218.314 361.97 206.902C368.559 195.49 364.63 180.888 353.195 174.286Z" fill="url(#paint17_linear_98_340)"/>
</g>
<g clip-path="url(#clip18_98_340)">
<path opacity="0.25" d="M268.52 176.126C257.085 169.524 242.475 173.423 235.886 184.835C229.298 196.247 233.226 210.849 244.661 217.451C256.096 224.053 270.707 220.154 277.296 208.743C283.884 197.331 279.955 182.728 268.52 176.126Z" fill="url(#paint18_linear_98_340)"/>
</g>
<g clip-path="url(#clip19_98_340)">
<path opacity="0.25" d="M463.64 14.1406C452.205 7.53862 437.594 11.4376 431.005 22.8491C424.417 34.2607 428.346 48.8635 439.781 55.4655C451.215 62.0675 465.826 58.1685 472.415 46.757C479.003 35.3454 475.074 20.7426 463.64 14.1406Z" fill="url(#paint19_linear_98_340)"/>
</g>
<g clip-path="url(#clip20_98_340)">
<path opacity="0.25" d="M520.702 14.1406C509.268 7.53862 494.657 11.4376 488.068 22.8491C481.48 34.2607 485.409 48.8635 496.844 55.4655C508.278 62.0675 522.889 58.1685 529.478 46.757C536.066 35.3454 532.137 20.7426 520.702 14.1406Z" fill="url(#paint20_linear_98_340)"/>
</g>
<g clip-path="url(#clip21_98_340)">
<path opacity="0.25" d="M268.52 14.1406C257.085 7.53862 242.475 11.4376 235.886 22.8491C229.298 34.2607 233.226 48.8635 244.661 55.4655C256.096 62.0675 270.707 58.1685 277.296 46.757C283.884 35.3454 279.955 20.7426 268.52 14.1406Z" fill="url(#paint21_linear_98_340)"/>
</g>
<g clip-path="url(#clip22_98_340)">
<path opacity="0.25" d="M209.617 8.61862C198.182 2.01665 183.571 5.9156 176.983 17.3272C170.394 28.7387 174.323 43.3416 185.758 49.9435C197.193 56.5455 211.804 52.6466 218.392 41.235C224.981 29.8234 221.052 15.2206 209.617 8.61862Z" fill="url(#paint22_linear_98_340)"/>
</g>
<g clip-path="url(#clip23_98_340)">
<path opacity="0.25" d="M332.947 100.656C321.512 94.0538 306.901 97.9527 300.312 109.364C293.724 120.776 297.653 135.379 309.088 141.981C320.523 148.583 335.133 144.684 341.722 133.272C348.31 121.861 344.382 107.258 332.947 100.656Z" fill="url(#paint23_linear_98_340)"/>
</g>
<g clip-path="url(#clip24_98_340)">
<path opacity="0.25" d="M596.173 14.1406C584.738 7.53862 570.127 11.4376 563.539 22.8491C556.95 34.2607 560.879 48.8635 572.314 55.4655C583.749 62.0675 598.36 58.1685 604.948 46.757C611.537 35.3454 607.608 20.7426 596.173 14.1406Z" fill="url(#paint24_linear_98_340)"/>
</g>
<g clip-path="url(#clip25_98_340)">
<path opacity="0.25" d="M380.806 150.356C369.371 143.754 354.76 147.653 348.172 159.064C341.583 170.476 345.512 185.079 356.947 191.681C368.382 198.283 382.993 194.384 389.581 182.972C396.17 171.561 392.241 156.958 380.806 150.356Z" fill="url(#paint25_linear_98_340)"/>
</g>
<g clip-path="url(#clip26_98_340)">
<path opacity="0.25" d="M338.469 67.5224C327.034 60.9205 312.423 64.8194 305.835 76.231C299.246 87.6425 303.175 102.245 314.61 108.847C326.045 115.449 340.656 111.55 347.244 100.139C353.833 88.7272 349.904 74.1244 338.469 67.5224Z" fill="url(#paint26_linear_98_340)"/>
</g>
<g clip-path="url(#clip27_98_340)">
<path opacity="0.25" d="M135.987 115.382C124.552 108.78 109.941 112.679 103.353 124.09C96.7642 135.502 100.693 150.105 112.128 156.707C123.563 163.309 138.174 159.41 144.762 147.998C151.351 136.587 147.422 121.984 135.987 115.382Z" fill="url(#paint27_linear_98_340)"/>
</g>
<g clip-path="url(#clip28_98_340)">
<path opacity="0.25" d="M75.2425 60.1591C63.8076 53.5572 49.1967 57.4561 42.6082 68.8677C36.0198 80.2793 39.9486 94.8821 51.3836 101.484C62.8185 108.086 77.4294 104.187 84.0179 92.7755C90.6063 81.364 86.6775 66.7611 75.2425 60.1591Z" fill="url(#paint28_linear_98_340)"/>
</g>
<g clip-path="url(#clip29_98_340)">
<path opacity="0.25" d="M45.7904 176.126C34.3554 169.524 19.7446 173.423 13.1561 184.835C6.56763 196.247 10.4965 210.849 21.9314 217.451C33.3664 224.053 47.9772 220.154 54.5657 208.743C61.1542 197.331 57.2253 182.728 45.7904 176.126Z" fill="url(#paint29_linear_98_340)"/>
</g>
<g clip-path="url(#clip30_98_340)">
<path opacity="0.25" d="M609.058 144.834C597.623 138.232 583.012 142.131 576.424 153.542C569.835 164.954 573.764 179.557 585.199 186.159C596.634 192.761 611.245 188.862 617.834 177.45C624.422 166.039 620.493 151.436 609.058 144.834Z" fill="url(#paint30_linear_98_340)"/>
</g>
<g clip-path="url(#clip31_98_340)">
<path opacity="0.25" d="M493.091 174.286C481.656 167.684 467.045 171.583 460.457 182.994C453.868 194.406 457.797 209.009 469.232 215.611C480.667 222.213 495.278 218.314 501.866 206.902C508.455 195.49 504.526 180.888 493.091 174.286Z" fill="url(#paint31_linear_98_340)"/>
</g>
<g clip-path="url(#clip32_98_340)">
<path opacity="0.25" d="M123.102 17.8222C111.667 11.2203 97.0558 15.1192 90.4674 26.5308C83.8789 37.9423 87.8078 52.5452 99.2427 59.1472C110.678 65.7491 125.289 61.8502 131.877 50.4386C138.465 39.027 134.537 24.4242 123.102 17.8222Z" fill="url(#paint32_linear_98_340)"/>
</g>
<g clip-path="url(#clip33_98_340)">
<path opacity="0.25" d="M436.028 14.1406C424.593 7.53862 409.983 11.4376 403.394 22.8491C396.806 34.2607 400.735 48.8635 412.169 55.4655C423.604 62.0675 438.215 58.1685 444.804 46.757C451.392 35.3454 447.463 20.7426 436.028 14.1406Z" fill="url(#paint33_linear_98_340)"/>
</g>
<g clip-path="url(#clip34_98_340)">
<path opacity="0.25" d="M189.369 146.675C177.934 140.073 163.323 143.972 156.734 155.383C150.146 166.795 154.075 181.398 165.51 188C176.944 194.602 191.555 190.703 198.144 179.291C204.732 167.88 200.803 153.277 189.369 146.675Z" fill="url(#paint34_linear_98_340)"/>
</g>
<g clip-path="url(#clip35_98_340)">
<path opacity="0.25" d="M391.85 85.9301C380.415 79.3282 365.805 83.2271 359.216 94.6387C352.628 106.05 356.557 120.653 367.991 127.255C379.426 133.857 394.037 129.958 400.626 118.547C407.214 107.135 403.285 92.5321 391.85 85.9301Z" fill="url(#paint35_linear_98_340)"/>
</g>
<g clip-path="url(#clip36_98_340)">
<path opacity="0.25" d="M261.158 157.719C249.723 151.117 235.112 155.016 228.523 166.428C221.935 177.839 225.864 192.442 237.299 199.044C248.734 205.646 263.344 201.747 269.933 190.336C276.521 178.924 272.593 164.321 261.158 157.719Z" fill="url(#paint36_linear_98_340)"/>
</g>
<g clip-path="url(#clip37_98_340)">
<path opacity="0.25" d="M546.473 189.011C535.038 182.409 520.427 186.308 513.839 197.72C507.25 209.131 511.179 223.734 522.614 230.336C534.049 236.938 548.66 233.039 555.248 221.628C561.837 210.216 557.908 195.613 546.473 189.011Z" fill="url(#paint37_linear_98_340)"/>
</g>
<g clip-path="url(#clip38_98_340)">
<path opacity="0.25" d="M447.073 122.745C435.638 116.143 421.027 120.042 414.439 131.454C407.85 142.865 411.779 157.468 423.214 164.07C434.649 170.672 449.26 166.773 455.848 155.361C462.437 143.95 458.508 129.347 447.073 122.745Z" fill="url(#paint38_linear_98_340)"/>
</g>
<g clip-path="url(#clip39_98_340)">
<path opacity="0.25" d="M314.539 170.604C303.104 164.002 288.493 167.901 281.905 179.313C275.316 190.725 279.245 205.327 290.68 211.929C302.115 218.531 316.726 214.632 323.314 203.221C329.903 191.809 325.974 177.206 314.539 170.604Z" fill="url(#paint39_linear_98_340)"/>
</g>
<g clip-path="url(#clip40_98_340)">
<path opacity="0.25" d="M437.869 235.03C426.434 228.428 411.823 232.327 405.235 243.739C398.646 255.15 402.575 269.753 414.01 276.355C425.445 282.957 440.056 279.058 446.644 267.647C453.233 256.235 449.304 241.632 437.869 235.03Z" fill="url(#paint40_linear_98_340)"/>
</g>
<g clip-path="url(#clip41_98_340)">
<path opacity="0.25" d="M362.399 235.03C350.964 228.428 336.353 232.327 329.764 243.739C323.176 255.15 327.105 269.753 338.54 276.355C349.975 282.957 364.585 279.058 371.174 267.647C377.762 256.235 373.833 241.632 362.399 235.03Z" fill="url(#paint41_linear_98_340)"/>
</g>
<g clip-path="url(#clip42_98_340)">
<path opacity="0.25" d="M277.724 236.871C266.289 230.269 251.678 234.168 245.09 245.579C238.501 256.991 242.43 271.594 253.865 278.195C265.3 284.797 279.911 280.899 286.5 269.487C293.088 258.075 289.159 243.473 277.724 236.871Z" fill="url(#paint42_linear_98_340)"/>
</g>
<g clip-path="url(#clip43_98_340)">
<path opacity="0.25" d="M472.843 74.8857C461.408 68.2837 446.797 72.1827 440.209 83.5943C433.62 95.0058 437.549 109.609 448.984 116.211C460.419 122.813 475.03 118.914 481.618 107.502C488.207 96.0905 484.278 81.4877 472.843 74.8857Z" fill="url(#paint43_linear_98_340)"/>
</g>
<g clip-path="url(#clip44_98_340)">
<path opacity="0.25" d="M529.906 74.8857C518.471 68.2837 503.861 72.1827 497.272 83.5943C490.684 95.0058 494.612 109.609 506.047 116.211C517.482 122.813 532.093 118.914 538.682 107.502C545.27 96.0905 541.341 81.4877 529.906 74.8857Z" fill="url(#paint44_linear_98_340)"/>
</g>
<g clip-path="url(#clip45_98_340)">
<path opacity="0.25" d="M277.724 74.8857C266.289 68.2837 251.678 72.1827 245.09 83.5943C238.501 95.0058 242.43 109.609 253.865 116.211C265.3 122.813 279.911 118.914 286.5 107.502C293.088 96.0905 289.159 81.4877 277.724 74.8857Z" fill="url(#paint45_linear_98_340)"/>
</g>
<g clip-path="url(#clip46_98_340)">
<path opacity="0.25" d="M218.82 69.3632C207.385 62.7613 192.775 66.6602 186.186 78.0718C179.598 89.4834 183.527 104.086 194.961 110.688C206.396 117.29 221.007 113.391 227.596 101.98C234.184 90.5681 230.255 75.9652 218.82 69.3632Z" fill="url(#paint46_linear_98_340)"/>
</g>
<g clip-path="url(#clip47_98_340)">
<path opacity="0.25" d="M342.15 161.4C330.715 154.798 316.104 158.697 309.516 170.109C302.927 181.52 306.856 196.123 318.291 202.725C329.726 209.327 344.337 205.428 350.926 194.017C357.514 182.605 353.585 168.002 342.15 161.4Z" fill="url(#paint47_linear_98_340)"/>
</g>
<g clip-path="url(#clip48_98_340)">
<path opacity="0.25" d="M605.377 74.8857C593.942 68.2837 579.331 72.1827 572.743 83.5943C566.154 95.0058 570.083 109.609 581.518 116.211C592.953 122.813 607.564 118.914 614.152 107.502C620.741 96.0905 616.812 81.4877 605.377 74.8857Z" fill="url(#paint48_linear_98_340)"/>
</g>
<g clip-path="url(#clip49_98_340)">
<path opacity="0.25" d="M390.01 211.101C378.575 204.499 363.964 208.398 357.375 219.809C350.787 231.221 354.716 245.824 366.151 252.425C377.586 259.027 392.196 255.128 398.785 243.717C405.373 232.305 401.445 217.703 390.01 211.101Z" fill="url(#paint49_linear_98_340)"/>
</g>
<g clip-path="url(#clip50_98_340)">
<path opacity="0.25" d="M347.672 128.267C336.238 121.665 321.627 125.564 315.038 136.976C308.45 148.387 312.379 162.99 323.814 169.592C335.248 176.194 349.859 172.295 356.448 160.883C363.036 149.472 359.107 134.869 347.672 128.267Z" fill="url(#paint50_linear_98_340)"/>
</g>
<g clip-path="url(#clip51_98_340)">
<path opacity="0.25" d="M145.191 176.126C133.756 169.524 119.145 173.423 112.556 184.835C105.968 196.247 109.897 210.849 121.332 217.451C132.767 224.053 147.378 220.154 153.966 208.743C160.555 197.331 156.626 182.728 145.191 176.126Z" fill="url(#paint51_linear_98_340)"/>
</g>
<g clip-path="url(#clip52_98_340)">
<path opacity="0.25" d="M84.4461 120.904C73.0112 114.302 58.4003 118.201 51.8119 129.613C45.2234 141.024 49.1522 155.627 60.5872 162.229C72.0221 168.831 86.633 164.932 93.2215 153.521C99.8099 142.109 95.8811 127.506 84.4461 120.904Z" fill="url(#paint52_linear_98_340)"/>
</g>
<g clip-path="url(#clip53_98_340)">
<path opacity="0.25" d="M54.9942 236.871C43.5593 230.269 28.9484 234.168 22.36 245.579C15.7715 256.991 19.7003 271.594 31.1353 278.195C42.5702 284.797 57.1811 280.899 63.7696 269.487C70.358 258.075 66.4292 243.473 54.9942 236.871Z" fill="url(#paint53_linear_98_340)"/>
</g>
<g clip-path="url(#clip54_98_340)">
<path opacity="0.25" d="M618.262 205.579C606.827 198.977 592.216 202.876 585.628 214.287C579.039 225.699 582.968 240.302 594.403 246.904C605.838 253.505 620.449 249.607 627.037 238.195C633.626 226.783 629.697 212.181 618.262 205.579Z" fill="url(#paint54_linear_98_340)"/>
</g>
<g clip-path="url(#clip55_98_340)">
<path opacity="0.25" d="M502.295 235.03C490.86 228.428 476.249 232.327 469.661 243.739C463.072 255.15 467.001 269.753 478.436 276.355C489.871 282.957 504.482 279.058 511.07 267.647C517.659 256.235 513.73 241.632 502.295 235.03Z" fill="url(#paint55_linear_98_340)"/>
</g>
<g clip-path="url(#clip56_98_340)">
<path opacity="0.25" d="M132.306 78.5669C120.871 71.9649 106.26 75.8638 99.6712 87.2754C93.0828 98.687 97.0116 113.29 108.447 119.892C119.882 126.494 134.492 122.595 141.081 111.183C147.669 99.7717 143.74 85.1688 132.306 78.5669Z" fill="url(#paint56_linear_98_340)"/>
</g>
<g clip-path="url(#clip57_98_340)">
<path opacity="0.25" d="M445.232 74.8857C433.797 68.2837 419.186 72.1827 412.598 83.5943C406.009 95.0058 409.938 109.609 421.373 116.211C432.808 122.813 447.419 118.914 454.007 107.502C460.596 96.0905 456.667 81.4877 445.232 74.8857Z" fill="url(#paint57_linear_98_340)"/>
</g>
<g clip-path="url(#clip58_98_340)">
<path opacity="0.25" d="M198.572 207.419C187.137 200.817 172.527 204.716 165.938 216.127C159.35 227.539 163.278 242.142 174.713 248.744C186.148 255.346 200.759 251.447 207.348 240.035C213.936 228.624 210.007 214.021 198.572 207.419Z" fill="url(#paint58_linear_98_340)"/>
</g>
<g clip-path="url(#clip59_98_340)">
<path opacity="0.25" d="M302.499 75.7189C314.778 70.8639 320.805 56.9945 315.96 44.7406C311.115 32.4867 297.233 26.4887 284.954 31.3436C272.675 36.1986 266.649 50.068 271.494 62.3219C276.339 74.5758 290.22 80.5738 302.499 75.7189Z" fill="url(#paint59_linear_98_340)"/>
</g>
<g clip-path="url(#clip60_98_340)">
<path opacity="0.25" d="M239.069 38.0703C227.634 31.4683 213.023 35.3673 206.434 46.7788C199.846 58.1904 203.775 72.7932 215.21 79.3952C226.645 85.9972 241.256 82.0982 247.844 70.6867C254.433 59.2751 250.504 44.6722 239.069 38.0703Z" fill="url(#paint60_linear_98_340)"/>
</g>
<g clip-path="url(#clip61_98_340)">
<path opacity="0.25" d="M104.159 123.812C116.913 120.395 124.487 107.307 121.077 94.5786C117.666 81.8506 104.562 74.303 91.8083 77.7204C79.0543 81.1378 71.4798 94.2262 74.8902 106.954C78.3007 119.682 91.4046 127.23 104.159 123.812Z" fill="url(#paint61_linear_98_340)"/>
</g>
<g clip-path="url(#clip62_98_340)">
<path opacity="0.25" d="M101.061 146.981C87.9262 148.334 78.3732 160.057 79.7234 173.164C81.0736 186.272 92.8157 195.801 105.95 194.448C119.085 193.095 128.638 181.372 127.287 168.265C125.937 155.157 114.195 145.628 101.061 146.981Z" fill="url(#paint62_linear_98_340)"/>
</g>
<g clip-path="url(#clip63_98_340)">
<path opacity="0.25" d="M126.68 240.115C135.005 229.867 133.464 214.823 123.237 206.515C113.01 198.206 97.9695 199.778 89.6436 210.026C81.3178 220.274 82.8591 235.318 93.0863 243.626C103.313 251.935 118.354 250.363 126.68 240.115Z" fill="url(#paint63_linear_98_340)"/>
</g>
<g clip-path="url(#clip64_98_340)">
<path opacity="0.25" d="M189.237 267.698C197.563 257.45 196.021 242.406 185.794 234.098C175.567 225.789 160.527 227.361 152.201 237.609C143.875 247.857 145.417 262.901 155.644 271.209C165.871 279.518 180.911 277.946 189.237 267.698Z" fill="url(#paint64_linear_98_340)"/>
</g>
<g clip-path="url(#clip65_98_340)">
<path opacity="0.25" d="M614.306 28.5613C603.188 22.1425 588.983 25.9333 582.577 37.0283C576.171 48.1233 579.991 62.3211 591.109 68.74C602.227 75.1588 616.432 71.368 622.838 60.273C629.244 49.1779 625.424 34.9801 614.306 28.5613Z" fill="url(#paint65_linear_98_340)"/>
</g>
<g clip-path="url(#clip66_98_340)">
<path opacity="0.25" d="M531.535 40.7222C524.888 50.1612 527.136 63.1902 536.556 69.8232C545.976 76.4563 559 74.1816 565.647 64.7427C572.293 55.3037 570.045 42.2747 560.626 35.6416C551.206 29.0086 538.182 31.2832 531.535 40.7222Z" fill="url(#paint66_linear_98_340)"/>
</g>
<g clip-path="url(#clip67_98_340)">
<path opacity="0.25" d="M567.242 125.67C576.207 134.635 590.727 134.65 599.673 125.703C608.62 116.757 608.605 102.237 599.64 93.2718C590.675 84.307 576.155 84.2921 567.209 93.2386C558.262 102.185 558.277 116.705 567.242 125.67Z" fill="url(#paint67_linear_98_340)"/>
</g>
</g>
<defs>
<filter id="filter0_d_98_340" x="0.580078" y="0" width="650.42" height="294.814" filterUnits="userSpaceOnUse" color-interpolation-filters="sRGB">
<feFlood flood-opacity="0" result="BackgroundImageFix"/>
<feColorMatrix in="SourceAlpha" type="matrix" values="0 0 0 0 0 0 0 0 0 0 0 0 0 0 0 0 0 0 127 0" result="hardAlpha"/>
<feOffset dy="4"/>
<feGaussianBlur stdDeviation="2"/>
<feComposite in2="hardAlpha" operator="out"/>
<feColorMatrix type="matrix" values="0 0 0 0 0 0 0 0 0 0 0 0 0 0 0 0 0 0 0.25 0"/>
<feBlend mode="normal" in2="BackgroundImageFix" result="effect1_dropShadow_98_340"/>
<feBlend mode="normal" in="SourceGraphic" in2="effect1_dropShadow_98_340" result="shape"/>
</filter>
<linearGradient id="paint0_linear_98_340" x1="437.661" y1="189.091" x2="473.748" y2="153.004" gradientUnits="userSpaceOnUse">
<stop stop-color="#0989B4" stop-opacity="0"/>
<stop offset="0.9994" stop-color="#53FFEE"/>
</linearGradient>
<linearGradient id="paint1_linear_98_340" x1="458.907" y1="73.9672" x2="491.127" y2="41.7467" gradientUnits="userSpaceOnUse">
<stop stop-color="#0989B4" stop-opacity="0"/>
<stop offset="0.9994" stop-color="#53FFEE"/>
</linearGradient>
<linearGradient id="paint2_linear_98_340" x1="348.741" y1="188.079" x2="309.339" y2="158.345" gradientUnits="userSpaceOnUse">
<stop stop-color="#0989B4" stop-opacity="0"/>
<stop offset="0.9994" stop-color="#53FFEE"/>
</linearGradient>
<linearGradient id="paint3_linear_98_340" x1="256.787" y1="170.775" x2="202.741" y2="214.09" gradientUnits="userSpaceOnUse">
<stop stop-color="#0989B4" stop-opacity="0"/>
<stop offset="0.9994" stop-color="#53FFEE"/>
</linearGradient>
<linearGradient id="paint4_linear_98_340" x1="58.0684" y1="52.3633" x2="21.799" y2="24.9929" gradientUnits="userSpaceOnUse">
<stop stop-color="#0989B4" stop-opacity="0"/>
<stop offset="0.9994" stop-color="#53FFEE"/>
</linearGradient>
<linearGradient id="paint5_linear_98_340" x1="30.2793" y1="191.619" x2="50.0282" y2="150.698" gradientUnits="userSpaceOnUse">
<stop stop-color="#0989B4" stop-opacity="0"/>
<stop offset="0.9994" stop-color="#53FFEE"/>
</linearGradient>
<linearGradient id="paint6_linear_98_340" x1="22.518" y1="115.505" x2="57.9122" y2="87.0121" gradientUnits="userSpaceOnUse">
<stop stop-color="#0989B4" stop-opacity="0"/>
<stop offset="0.9994" stop-color="#53FFEE"/>
</linearGradient>
<linearGradient id="paint7_linear_98_340" x1="46.3296" y1="212.248" x2="33.7234" y2="255.903" gradientUnits="userSpaceOnUse">
<stop stop-color="#0989B4" stop-opacity="0"/>
<stop offset="0.9994" stop-color="#53FFEE"/>
</linearGradient>
<linearGradient id="paint8_linear_98_340" x1="88.3846" y1="62.4117" x2="112.058" y2="21.4086" gradientUnits="userSpaceOnUse">
<stop stop-color="#0989B4" stop-opacity="0"/>
<stop offset="0.9994" stop-color="#53FFEE"/>
</linearGradient>
<linearGradient id="paint9_linear_98_340" x1="147.288" y1="66.188" x2="170.961" y2="25.185" gradientUnits="userSpaceOnUse">
<stop stop-color="#0989B4" stop-opacity="0"/>
<stop offset="0.9994" stop-color="#53FFEE"/>
</linearGradient>
<linearGradient id="paint10_linear_98_340" x1="156.492" y1="126.933" x2="180.165" y2="85.9301" gradientUnits="userSpaceOnUse">
<stop stop-color="#0989B4" stop-opacity="0"/>
<stop offset="0.9994" stop-color="#53FFEE"/>
</linearGradient>
<linearGradient id="paint11_linear_98_340" x1="358.974" y1="66.188" x2="382.647" y2="25.185" gradientUnits="userSpaceOnUse">
<stop stop-color="#0989B4" stop-opacity="0"/>
<stop offset="0.9994" stop-color="#53FFEE"/>
</linearGradient>
<linearGradient id="paint12_linear_98_340" x1="228.281" y1="137.977" x2="251.954" y2="96.9741" gradientUnits="userSpaceOnUse">
<stop stop-color="#0989B4" stop-opacity="0"/>
<stop offset="0.9994" stop-color="#53FFEE"/>
</linearGradient>
<linearGradient id="paint13_linear_98_340" x1="513.596" y1="169.27" x2="537.269" y2="128.267" gradientUnits="userSpaceOnUse">
<stop stop-color="#0989B4" stop-opacity="0"/>
<stop offset="0.9994" stop-color="#53FFEE"/>
</linearGradient>
<linearGradient id="paint14_linear_98_340" x1="414.196" y1="103.003" x2="437.869" y2="62.0004" gradientUnits="userSpaceOnUse">
<stop stop-color="#0989B4" stop-opacity="0"/>
<stop offset="0.9994" stop-color="#53FFEE"/>
</linearGradient>
<linearGradient id="paint15_linear_98_340" x1="281.662" y1="150.863" x2="305.336" y2="109.86" gradientUnits="userSpaceOnUse">
<stop stop-color="#0989B4" stop-opacity="0"/>
<stop offset="0.9994" stop-color="#53FFEE"/>
</linearGradient>
<linearGradient id="paint16_linear_98_340" x1="404.992" y1="215.289" x2="428.665" y2="174.286" gradientUnits="userSpaceOnUse">
<stop stop-color="#0989B4" stop-opacity="0"/>
<stop offset="0.9994" stop-color="#53FFEE"/>
</linearGradient>
<linearGradient id="paint17_linear_98_340" x1="329.522" y1="215.289" x2="353.195" y2="174.286" gradientUnits="userSpaceOnUse">
<stop stop-color="#0989B4" stop-opacity="0"/>
<stop offset="0.9994" stop-color="#53FFEE"/>
</linearGradient>
<linearGradient id="paint18_linear_98_340" x1="244.847" y1="217.129" x2="268.52" y2="176.126" gradientUnits="userSpaceOnUse">
<stop stop-color="#0989B4" stop-opacity="0"/>
<stop offset="0.9994" stop-color="#53FFEE"/>
</linearGradient>
<linearGradient id="paint19_linear_98_340" x1="439.966" y1="55.1436" x2="463.639" y2="14.1406" gradientUnits="userSpaceOnUse">
<stop stop-color="#0989B4" stop-opacity="0"/>
<stop offset="0.9994" stop-color="#53FFEE"/>
</linearGradient>
<linearGradient id="paint20_linear_98_340" x1="497.029" y1="55.1436" x2="520.702" y2="14.1406" gradientUnits="userSpaceOnUse">
<stop stop-color="#0989B4" stop-opacity="0"/>
<stop offset="0.9994" stop-color="#53FFEE"/>
</linearGradient>
<linearGradient id="paint21_linear_98_340" x1="244.847" y1="55.1436" x2="268.52" y2="14.1406" gradientUnits="userSpaceOnUse">
<stop stop-color="#0989B4" stop-opacity="0"/>
<stop offset="0.9994" stop-color="#53FFEE"/>
</linearGradient>
<linearGradient id="paint22_linear_98_340" x1="185.944" y1="49.6216" x2="209.617" y2="8.61861" gradientUnits="userSpaceOnUse">
<stop stop-color="#0989B4" stop-opacity="0"/>
<stop offset="0.9994" stop-color="#53FFEE"/>
</linearGradient>
<linearGradient id="paint23_linear_98_340" x1="309.274" y1="141.659" x2="332.947" y2="100.656" gradientUnits="userSpaceOnUse">
<stop stop-color="#0989B4" stop-opacity="0"/>
<stop offset="0.9994" stop-color="#53FFEE"/>
</linearGradient>
<linearGradient id="paint24_linear_98_340" x1="572.5" y1="55.1436" x2="596.173" y2="14.1406" gradientUnits="userSpaceOnUse">
<stop stop-color="#0989B4" stop-opacity="0"/>
<stop offset="0.9994" stop-color="#53FFEE"/>
</linearGradient>
<linearGradient id="paint25_linear_98_340" x1="357.133" y1="191.359" x2="380.806" y2="150.356" gradientUnits="userSpaceOnUse">
<stop stop-color="#0989B4" stop-opacity="0"/>
<stop offset="0.9994" stop-color="#53FFEE"/>
</linearGradient>
<linearGradient id="paint26_linear_98_340" x1="314.796" y1="108.525" x2="338.469" y2="67.5224" gradientUnits="userSpaceOnUse">
<stop stop-color="#0989B4" stop-opacity="0"/>
<stop offset="0.9994" stop-color="#53FFEE"/>
</linearGradient>
<linearGradient id="paint27_linear_98_340" x1="112.314" y1="156.385" x2="135.987" y2="115.382" gradientUnits="userSpaceOnUse">
<stop stop-color="#0989B4" stop-opacity="0"/>
<stop offset="0.9994" stop-color="#53FFEE"/>
</linearGradient>
<linearGradient id="paint28_linear_98_340" x1="51.5694" y1="101.162" x2="75.2425" y2="60.1591" gradientUnits="userSpaceOnUse">
<stop stop-color="#0989B4" stop-opacity="0"/>
<stop offset="0.9994" stop-color="#53FFEE"/>
</linearGradient>
<linearGradient id="paint29_linear_98_340" x1="22.1173" y1="217.129" x2="45.7904" y2="176.126" gradientUnits="userSpaceOnUse">
<stop stop-color="#0989B4" stop-opacity="0"/>
<stop offset="0.9994" stop-color="#53FFEE"/>
</linearGradient>
<linearGradient id="paint30_linear_98_340" x1="585.385" y1="185.837" x2="609.058" y2="144.834" gradientUnits="userSpaceOnUse">
<stop stop-color="#0989B4" stop-opacity="0"/>
<stop offset="0.9994" stop-color="#53FFEE"/>
</linearGradient>
<linearGradient id="paint31_linear_98_340" x1="469.418" y1="215.289" x2="493.091" y2="174.286" gradientUnits="userSpaceOnUse">
<stop stop-color="#0989B4" stop-opacity="0"/>
<stop offset="0.9994" stop-color="#53FFEE"/>
</linearGradient>
<linearGradient id="paint32_linear_98_340" x1="99.4286" y1="58.8252" x2="123.102" y2="17.8222" gradientUnits="userSpaceOnUse">
<stop stop-color="#0989B4" stop-opacity="0"/>
<stop offset="0.9994" stop-color="#53FFEE"/>
</linearGradient>
<linearGradient id="paint33_linear_98_340" x1="412.355" y1="55.1436" x2="436.028" y2="14.1406" gradientUnits="userSpaceOnUse">
<stop stop-color="#0989B4" stop-opacity="0"/>
<stop offset="0.9994" stop-color="#53FFEE"/>
</linearGradient>
<linearGradient id="paint34_linear_98_340" x1="165.695" y1="187.678" x2="189.368" y2="146.675" gradientUnits="userSpaceOnUse">
<stop stop-color="#0989B4" stop-opacity="0"/>
<stop offset="0.9994" stop-color="#53FFEE"/>
</linearGradient>
<linearGradient id="paint35_linear_98_340" x1="368.177" y1="126.933" x2="391.85" y2="85.9301" gradientUnits="userSpaceOnUse">
<stop stop-color="#0989B4" stop-opacity="0"/>
<stop offset="0.9994" stop-color="#53FFEE"/>
</linearGradient>
<linearGradient id="paint36_linear_98_340" x1="237.484" y1="198.722" x2="261.158" y2="157.719" gradientUnits="userSpaceOnUse">
<stop stop-color="#0989B4" stop-opacity="0"/>
<stop offset="0.9994" stop-color="#53FFEE"/>
</linearGradient>
<linearGradient id="paint37_linear_98_340" x1="522.8" y1="230.014" x2="546.473" y2="189.011" gradientUnits="userSpaceOnUse">
<stop stop-color="#0989B4" stop-opacity="0"/>
<stop offset="0.9994" stop-color="#53FFEE"/>
</linearGradient>
<linearGradient id="paint38_linear_98_340" x1="423.4" y1="163.748" x2="447.073" y2="122.745" gradientUnits="userSpaceOnUse">
<stop stop-color="#0989B4" stop-opacity="0"/>
<stop offset="0.9994" stop-color="#53FFEE"/>
</linearGradient>
<linearGradient id="paint39_linear_98_340" x1="290.866" y1="211.607" x2="314.539" y2="170.604" gradientUnits="userSpaceOnUse">
<stop stop-color="#0989B4" stop-opacity="0"/>
<stop offset="0.9994" stop-color="#53FFEE"/>
</linearGradient>
<linearGradient id="paint40_linear_98_340" x1="414.196" y1="276.033" x2="437.869" y2="235.03" gradientUnits="userSpaceOnUse">
<stop stop-color="#0989B4" stop-opacity="0"/>
<stop offset="0.9994" stop-color="#53FFEE"/>
</linearGradient>
<linearGradient id="paint41_linear_98_340" x1="338.725" y1="276.033" x2="362.399" y2="235.03" gradientUnits="userSpaceOnUse">
<stop stop-color="#0989B4" stop-opacity="0"/>
<stop offset="0.9994" stop-color="#53FFEE"/>
</linearGradient>
<linearGradient id="paint42_linear_98_340" x1="254.051" y1="277.874" x2="277.724" y2="236.871" gradientUnits="userSpaceOnUse">
<stop stop-color="#0989B4" stop-opacity="0"/>
<stop offset="0.9994" stop-color="#53FFEE"/>
</linearGradient>
<linearGradient id="paint43_linear_98_340" x1="449.17" y1="115.889" x2="472.843" y2="74.8857" gradientUnits="userSpaceOnUse">
<stop stop-color="#0989B4" stop-opacity="0"/>
<stop offset="0.9994" stop-color="#53FFEE"/>
</linearGradient>
<linearGradient id="paint44_linear_98_340" x1="506.233" y1="115.889" x2="529.906" y2="74.8857" gradientUnits="userSpaceOnUse">
<stop stop-color="#0989B4" stop-opacity="0"/>
<stop offset="0.9994" stop-color="#53FFEE"/>
</linearGradient>
<linearGradient id="paint45_linear_98_340" x1="254.051" y1="115.889" x2="277.724" y2="74.8857" gradientUnits="userSpaceOnUse">
<stop stop-color="#0989B4" stop-opacity="0"/>
<stop offset="0.9994" stop-color="#53FFEE"/>
</linearGradient>
<linearGradient id="paint46_linear_98_340" x1="195.147" y1="110.366" x2="218.82" y2="69.3632" gradientUnits="userSpaceOnUse">
<stop stop-color="#0989B4" stop-opacity="0"/>
<stop offset="0.9994" stop-color="#53FFEE"/>
</linearGradient>
<linearGradient id="paint47_linear_98_340" x1="318.477" y1="202.403" x2="342.15" y2="161.4" gradientUnits="userSpaceOnUse">
<stop stop-color="#0989B4" stop-opacity="0"/>
<stop offset="0.9994" stop-color="#53FFEE"/>
</linearGradient>
<linearGradient id="paint48_linear_98_340" x1="581.704" y1="115.889" x2="605.377" y2="74.8857" gradientUnits="userSpaceOnUse">
<stop stop-color="#0989B4" stop-opacity="0"/>
<stop offset="0.9994" stop-color="#53FFEE"/>
</linearGradient>
<linearGradient id="paint49_linear_98_340" x1="366.337" y1="252.104" x2="390.01" y2="211.101" gradientUnits="userSpaceOnUse">
<stop stop-color="#0989B4" stop-opacity="0"/>
<stop offset="0.9994" stop-color="#53FFEE"/>
</linearGradient>
<linearGradient id="paint50_linear_98_340" x1="323.999" y1="169.27" x2="347.672" y2="128.267" gradientUnits="userSpaceOnUse">
<stop stop-color="#0989B4" stop-opacity="0"/>
<stop offset="0.9994" stop-color="#53FFEE"/>
</linearGradient>
<linearGradient id="paint51_linear_98_340" x1="121.518" y1="217.129" x2="145.191" y2="176.126" gradientUnits="userSpaceOnUse">
<stop stop-color="#0989B4" stop-opacity="0"/>
<stop offset="0.9994" stop-color="#53FFEE"/>
</linearGradient>
<linearGradient id="paint52_linear_98_340" x1="60.773" y1="161.907" x2="84.4461" y2="120.904" gradientUnits="userSpaceOnUse">
<stop stop-color="#0989B4" stop-opacity="0"/>
<stop offset="0.9994" stop-color="#53FFEE"/>
</linearGradient>
<linearGradient id="paint53_linear_98_340" x1="31.3211" y1="277.874" x2="54.9942" y2="236.871" gradientUnits="userSpaceOnUse">
<stop stop-color="#0989B4" stop-opacity="0"/>
<stop offset="0.9994" stop-color="#53FFEE"/>
</linearGradient>
<linearGradient id="paint54_linear_98_340" x1="594.589" y1="246.582" x2="618.262" y2="205.579" gradientUnits="userSpaceOnUse">
<stop stop-color="#0989B4" stop-opacity="0"/>
<stop offset="0.9994" stop-color="#53FFEE"/>
</linearGradient>
<linearGradient id="paint55_linear_98_340" x1="478.622" y1="276.033" x2="502.295" y2="235.03" gradientUnits="userSpaceOnUse">
<stop stop-color="#0989B4" stop-opacity="0"/>
<stop offset="0.9994" stop-color="#53FFEE"/>
</linearGradient>
<linearGradient id="paint56_linear_98_340" x1="108.632" y1="119.57" x2="132.306" y2="78.5669" gradientUnits="userSpaceOnUse">
<stop stop-color="#0989B4" stop-opacity="0"/>
<stop offset="0.9994" stop-color="#53FFEE"/>
</linearGradient>
<linearGradient id="paint57_linear_98_340" x1="421.559" y1="115.889" x2="445.232" y2="74.8857" gradientUnits="userSpaceOnUse">
<stop stop-color="#0989B4" stop-opacity="0"/>
<stop offset="0.9994" stop-color="#53FFEE"/>
</linearGradient>
<linearGradient id="paint58_linear_98_340" x1="174.899" y1="248.422" x2="198.572" y2="207.419" gradientUnits="userSpaceOnUse">
<stop stop-color="#0989B4" stop-opacity="0"/>
<stop offset="0.9994" stop-color="#53FFEE"/>
</linearGradient>
<linearGradient id="paint59_linear_98_340" x1="285.091" y1="31.6893" x2="302.499" y2="75.7189" gradientUnits="userSpaceOnUse">
<stop stop-color="#0989B4" stop-opacity="0"/>
<stop offset="0.9994" stop-color="#53FFEE"/>
</linearGradient>
<linearGradient id="paint60_linear_98_340" x1="215.396" y1="79.0733" x2="239.069" y2="38.0703" gradientUnits="userSpaceOnUse">
<stop stop-color="#0989B4" stop-opacity="0"/>
<stop offset="0.9994" stop-color="#53FFEE"/>
</linearGradient>
<linearGradient id="paint61_linear_98_340" x1="91.9045" y1="78.0794" x2="104.159" y2="123.812" gradientUnits="userSpaceOnUse">
<stop stop-color="#0989B4" stop-opacity="0"/>
<stop offset="0.9994" stop-color="#53FFEE"/>
</linearGradient>
<linearGradient id="paint62_linear_98_340" x1="105.912" y1="194.078" x2="101.061" y2="146.981" gradientUnits="userSpaceOnUse">
<stop stop-color="#0989B4" stop-opacity="0"/>
<stop offset="0.9994" stop-color="#53FFEE"/>
</linearGradient>
<linearGradient id="paint63_linear_98_340" x1="89.9321" y1="210.261" x2="126.68" y2="240.115" gradientUnits="userSpaceOnUse">
<stop stop-color="#0989B4" stop-opacity="0"/>
<stop offset="0.9994" stop-color="#53FFEE"/>
</linearGradient>
<linearGradient id="paint64_linear_98_340" x1="152.49" y1="237.844" x2="189.237" y2="267.698" gradientUnits="userSpaceOnUse">
<stop stop-color="#0989B4" stop-opacity="0"/>
<stop offset="0.9994" stop-color="#53FFEE"/>
</linearGradient>
<linearGradient id="paint65_linear_98_340" x1="591.29" y1="68.427" x2="614.306" y2="28.5613" gradientUnits="userSpaceOnUse">
<stop stop-color="#0989B4" stop-opacity="0"/>
<stop offset="0.9994" stop-color="#53FFEE"/>
</linearGradient>
<linearGradient id="paint66_linear_98_340" x1="565.381" y1="64.5555" x2="531.535" y2="40.7222" gradientUnits="userSpaceOnUse">
<stop stop-color="#0989B4" stop-opacity="0"/>
<stop offset="0.9994" stop-color="#53FFEE"/>
</linearGradient>
<linearGradient id="paint67_linear_98_340" x1="599.388" y1="93.5242" x2="567.242" y2="125.67" gradientUnits="userSpaceOnUse">
<stop stop-color="#0989B4" stop-opacity="0"/>
<stop offset="0.9994" stop-color="#53FFEE"/>
</linearGradient>
<clipPath id="clip0_98_340">
<rect width="51.5408" height="51.5408" fill="white" transform="matrix(-1 0 0 1 481.333 145.418)"/>
</clipPath>
<clipPath id="clip1_98_340">
<rect width="46.0186" height="46.0186" fill="white" transform="matrix(-1 0 0 1 497.9 34.9741)"/>
</clipPath>
<clipPath id="clip2_98_340">
<rect width="49.8519" height="49.8519" fill="white" transform="matrix(0.138487 0.990364 0.990364 -0.138487 301.057 152.095)"/>
</clipPath>
<clipPath id="clip3_98_340">
<rect width="69.9483" height="69.9483" fill="white" transform="matrix(0.993981 0.109549 0.109549 -0.993981 191.381 223.195)"/>
</clipPath>
<clipPath id="clip4_98_340">
<rect width="45.8886" height="45.8886" fill="white" transform="matrix(0.138487 0.990364 0.990364 -0.138487 14.1753 19.2397)"/>
</clipPath>
<clipPath id="clip5_98_340">
<rect width="45.8886" height="45.8886" fill="white" transform="matrix(-0.944158 0.329494 0.329494 0.944158 54.1792 142.096)"/>
</clipPath>
<clipPath id="clip6_98_340">
<rect width="45.8886" height="45.8886" fill="white" transform="matrix(-0.994216 -0.107396 -0.107396 0.994216 65.3518 81.0229)"/>
</clipPath>
<clipPath id="clip7_98_340">
<rect width="45.8886" height="45.8886" fill="white" transform="matrix(0.875526 -0.483171 -0.483171 -0.875526 31.0737 265.079)"/>
</clipPath>
<clipPath id="clip8_98_340">
<rect width="47.8157" height="47.8157" fill="white" transform="matrix(-0.965926 0.258819 0.258819 0.965926 117.034 12.79)"/>
</clipPath>
<clipPath id="clip9_98_340">
<rect width="47.8157" height="47.8157" fill="white" transform="matrix(-0.965926 0.258819 0.258819 0.965926 175.937 16.5664)"/>
</clipPath>
<clipPath id="clip10_98_340">
<rect width="47.8157" height="47.8157" fill="white" transform="matrix(-0.965926 0.258819 0.258819 0.965926 185.141 77.3115)"/>
</clipPath>
<clipPath id="clip11_98_340">
<rect width="47.8157" height="47.8157" fill="white" transform="matrix(-0.965926 0.258819 0.258819 0.965926 387.623 16.5664)"/>
</clipPath>
<clipPath id="clip12_98_340">
<rect width="47.8157" height="47.8157" fill="white" transform="matrix(-0.965926 0.258819 0.258819 0.965926 256.93 88.3555)"/>
</clipPath>
<clipPath id="clip13_98_340">
<rect width="47.8157" height="47.8157" fill="white" transform="matrix(-0.965926 0.258819 0.258819 0.965926 542.245 119.648)"/>
</clipPath>
<clipPath id="clip14_98_340">
<rect width="47.8157" height="47.8157" fill="white" transform="matrix(-0.965926 0.258819 0.258819 0.965926 442.845 53.3818)"/>
</clipPath>
<clipPath id="clip15_98_340">
<rect width="47.8157" height="47.8157" fill="white" transform="matrix(-0.965926 0.258819 0.258819 0.965926 310.312 101.241)"/>
</clipPath>
<clipPath id="clip16_98_340">
<rect width="47.8157" height="47.8157" fill="white" transform="matrix(-0.965926 0.258819 0.258819 0.965926 433.641 165.667)"/>
</clipPath>
<clipPath id="clip17_98_340">
<rect width="47.8157" height="47.8157" fill="white" transform="matrix(-0.965926 0.258819 0.258819 0.965926 358.171 165.667)"/>
</clipPath>
<clipPath id="clip18_98_340">
<rect width="47.8157" height="47.8157" fill="white" transform="matrix(-0.965926 0.258819 0.258819 0.965926 273.496 167.508)"/>
</clipPath>
<clipPath id="clip19_98_340">
<rect width="47.8157" height="47.8157" fill="white" transform="matrix(-0.965926 0.258819 0.258819 0.965926 468.615 5.52197)"/>
</clipPath>
<clipPath id="clip20_98_340">
<rect width="47.8157" height="47.8157" fill="white" transform="matrix(-0.965926 0.258819 0.258819 0.965926 525.678 5.52197)"/>
</clipPath>
<clipPath id="clip21_98_340">
<rect width="47.8157" height="47.8157" fill="white" transform="matrix(-0.965926 0.258819 0.258819 0.965926 273.496 5.52197)"/>
</clipPath>
<clipPath id="clip22_98_340">
<rect width="47.8157" height="47.8157" fill="white" transform="matrix(-0.965926 0.258819 0.258819 0.965926 214.593 0)"/>
</clipPath>
<clipPath id="clip23_98_340">
<rect width="47.8157" height="47.8157" fill="white" transform="matrix(-0.965926 0.258819 0.258819 0.965926 337.923 92.0371)"/>
</clipPath>
<clipPath id="clip24_98_340">
<rect width="47.8157" height="47.8157" fill="white" transform="matrix(-0.965926 0.258819 0.258819 0.965926 601.149 5.52197)"/>
</clipPath>
<clipPath id="clip25_98_340">
<rect width="47.8157" height="47.8157" fill="white" transform="matrix(-0.965926 0.258819 0.258819 0.965926 385.782 141.737)"/>
</clipPath>
<clipPath id="clip26_98_340">
<rect width="47.8157" height="47.8157" fill="white" transform="matrix(-0.965926 0.258819 0.258819 0.965926 343.445 58.9038)"/>
</clipPath>
<clipPath id="clip27_98_340">
<rect width="47.8157" height="47.8157" fill="white" transform="matrix(-0.965926 0.258819 0.258819 0.965926 140.963 106.763)"/>
</clipPath>
<clipPath id="clip28_98_340">
<rect width="47.8157" height="47.8157" fill="white" transform="matrix(-0.965926 0.258819 0.258819 0.965926 80.2185 51.5405)"/>
</clipPath>
<clipPath id="clip29_98_340">
<rect width="47.8157" height="47.8157" fill="white" transform="matrix(-0.965926 0.258819 0.258819 0.965926 50.7664 167.508)"/>
</clipPath>
<clipPath id="clip30_98_340">
<rect width="47.8157" height="47.8157" fill="white" transform="matrix(-0.965926 0.258819 0.258819 0.965926 614.034 136.215)"/>
</clipPath>
<clipPath id="clip31_98_340">
<rect width="47.8157" height="47.8157" fill="white" transform="matrix(-0.965926 0.258819 0.258819 0.965926 498.067 165.667)"/>
</clipPath>
<clipPath id="clip32_98_340">
<rect width="47.8157" height="47.8157" fill="white" transform="matrix(-0.965926 0.258819 0.258819 0.965926 128.078 9.20361)"/>
</clipPath>
<clipPath id="clip33_98_340">
<rect width="47.8157" height="47.8157" fill="white" transform="matrix(-0.965926 0.258819 0.258819 0.965926 441.004 5.52197)"/>
</clipPath>
<clipPath id="clip34_98_340">
<rect width="47.8157" height="47.8157" fill="white" transform="matrix(-0.965926 0.258819 0.258819 0.965926 194.344 138.056)"/>
</clipPath>
<clipPath id="clip35_98_340">
<rect width="47.8157" height="47.8157" fill="white" transform="matrix(-0.965926 0.258819 0.258819 0.965926 396.826 77.3115)"/>
</clipPath>
<clipPath id="clip36_98_340">
<rect width="47.8157" height="47.8157" fill="white" transform="matrix(-0.965926 0.258819 0.258819 0.965926 266.134 149.101)"/>
</clipPath>
<clipPath id="clip37_98_340">
<rect width="47.8157" height="47.8157" fill="white" transform="matrix(-0.965926 0.258819 0.258819 0.965926 551.449 180.393)"/>
</clipPath>
<clipPath id="clip38_98_340">
<rect width="47.8157" height="47.8157" fill="white" transform="matrix(-0.965926 0.258819 0.258819 0.965926 452.049 114.126)"/>
</clipPath>
<clipPath id="clip39_98_340">
<rect width="47.8157" height="47.8157" fill="white" transform="matrix(-0.965926 0.258819 0.258819 0.965926 319.515 161.986)"/>
</clipPath>
<clipPath id="clip40_98_340">
<rect width="47.8157" height="47.8157" fill="white" transform="matrix(-0.965926 0.258819 0.258819 0.965926 442.845 226.412)"/>
</clipPath>
<clipPath id="clip41_98_340">
<rect width="47.8157" height="47.8157" fill="white" transform="matrix(-0.965926 0.258819 0.258819 0.965926 367.375 226.412)"/>
</clipPath>
<clipPath id="clip42_98_340">
<rect width="47.8157" height="47.8157" fill="white" transform="matrix(-0.965926 0.258819 0.258819 0.965926 282.7 228.252)"/>
</clipPath>
<clipPath id="clip43_98_340">
<rect width="47.8157" height="47.8157" fill="white" transform="matrix(-0.965926 0.258819 0.258819 0.965926 477.819 66.2671)"/>
</clipPath>
<clipPath id="clip44_98_340">
<rect width="47.8157" height="47.8157" fill="white" transform="matrix(-0.965926 0.258819 0.258819 0.965926 534.882 66.2671)"/>
</clipPath>
<clipPath id="clip45_98_340">
<rect width="47.8157" height="47.8157" fill="white" transform="matrix(-0.965926 0.258819 0.258819 0.965926 282.7 66.2671)"/>
</clipPath>
<clipPath id="clip46_98_340">
<rect width="47.8157" height="47.8157" fill="white" transform="matrix(-0.965926 0.258819 0.258819 0.965926 223.796 60.7446)"/>
</clipPath>
<clipPath id="clip47_98_340">
<rect width="47.8157" height="47.8157" fill="white" transform="matrix(-0.965926 0.258819 0.258819 0.965926 347.126 152.782)"/>
</clipPath>
<clipPath id="clip48_98_340">
<rect width="47.8157" height="47.8157" fill="white" transform="matrix(-0.965926 0.258819 0.258819 0.965926 610.353 66.2671)"/>
</clipPath>
<clipPath id="clip49_98_340">
<rect width="47.8157" height="47.8157" fill="white" transform="matrix(-0.965926 0.258819 0.258819 0.965926 394.986 202.482)"/>
</clipPath>
<clipPath id="clip50_98_340">
<rect width="47.8157" height="47.8157" fill="white" transform="matrix(-0.965926 0.258819 0.258819 0.965926 352.648 119.648)"/>
</clipPath>
<clipPath id="clip51_98_340">
<rect width="47.8157" height="47.8157" fill="white" transform="matrix(-0.965926 0.258819 0.258819 0.965926 150.167 167.508)"/>
</clipPath>
<clipPath id="clip52_98_340">
<rect width="47.8157" height="47.8157" fill="white" transform="matrix(-0.965926 0.258819 0.258819 0.965926 89.4221 112.286)"/>
</clipPath>
<clipPath id="clip53_98_340">
<rect width="47.8157" height="47.8157" fill="white" transform="matrix(-0.965926 0.258819 0.258819 0.965926 59.9702 228.252)"/>
</clipPath>
<clipPath id="clip54_98_340">
<rect width="47.8157" height="47.8157" fill="white" transform="matrix(-0.965926 0.258819 0.258819 0.965926 623.238 196.96)"/>
</clipPath>
<clipPath id="clip55_98_340">
<rect width="47.8157" height="47.8157" fill="white" transform="matrix(-0.965926 0.258819 0.258819 0.965926 507.271 226.412)"/>
</clipPath>
<clipPath id="clip56_98_340">
<rect width="47.8157" height="47.8157" fill="white" transform="matrix(-0.965926 0.258819 0.258819 0.965926 137.281 69.9482)"/>
</clipPath>
<clipPath id="clip57_98_340">
<rect width="47.8157" height="47.8157" fill="white" transform="matrix(-0.965926 0.258819 0.258819 0.965926 450.208 66.2671)"/>
</clipPath>
<clipPath id="clip58_98_340">
<rect width="47.8157" height="47.8157" fill="white" transform="matrix(-0.965926 0.258819 0.258819 0.965926 203.548 198.8)"/>
</clipPath>
<clipPath id="clip59_98_340">
<rect width="47.8157" height="47.8157" fill="white" transform="matrix(0.397578 -0.917568 -0.917568 -0.397578 306.158 84.9736)"/>
</clipPath>
<clipPath id="clip60_98_340">
<rect width="47.8157" height="47.8157" fill="white" transform="matrix(-0.965926 0.258819 0.258819 0.965926 244.045 29.4517)"/>
</clipPath>
<clipPath id="clip61_98_340">
<rect width="47.8157" height="47.8157" fill="white" transform="matrix(0.5 -0.866025 -0.866025 -0.5 106.734 133.425)"/>
</clipPath>
<clipPath id="clip62_98_340">
<rect width="47.8157" height="47.8157" fill="white" transform="matrix(-0.630929 0.77584 0.77584 0.630929 100.041 137.082)"/>
</clipPath>
<clipPath id="clip63_98_340">
<rect width="47.8157" height="47.8157" fill="white" transform="matrix(-0.102944 -0.994687 -0.994687 0.102944 134.404 246.39)"/>
</clipPath>
<clipPath id="clip64_98_340">
<rect width="47.8157" height="47.8157" fill="white" transform="matrix(-0.102944 -0.994687 -0.994687 0.102944 196.961 273.973)"/>
</clipPath>
<clipPath id="clip65_98_340">
<rect width="46.4894" height="46.4894" fill="white" transform="matrix(-0.965926 0.258819 0.258819 0.965926 619.144 20.1816)"/>
</clipPath>
<clipPath id="clip66_98_340">
<rect width="41.8059" height="41.8059" fill="white" transform="matrix(0.171034 0.985265 0.985265 -0.171034 524.421 35.7124)"/>
</clipPath>
<clipPath id="clip67_98_340">
<rect width="45.9117" height="45.9117" fill="white" transform="matrix(1 0 0 -1 560.485 132.427)"/>
</clipPath>
</defs>
</svg>
