<svg width="357" height="164" viewBox="0 0 357 164" fill="none" xmlns="http://www.w3.org/2000/svg">
<g filter="url(#filter0_d_98_340)">
<rect x="4" y="4" width="349" height="150" fill="#3FCCD3"/>
<g clip-path="url(#clip0_98_340)">
<path opacity="0.25" d="M258.879 83.1208C253.412 77.6535 244.557 77.6444 239.101 83.1006C233.644 88.5567 233.653 97.412 239.121 102.879C244.588 108.347 253.443 108.356 258.9 102.9C264.356 97.4434 264.347 88.5881 258.879 83.1208Z" fill="url(#paint0_linear_98_340)"/>
</g>
<g clip-path="url(#clip1_98_340)">
<path opacity="0.25" d="M268.321 22.6793C263.439 17.7978 255.533 17.7897 250.661 22.6612C245.79 27.5328 245.798 35.4393 250.679 40.3208C255.561 45.2024 263.467 45.2105 268.339 40.3389C273.21 35.4673 273.202 27.5609 268.321 22.6793Z" fill="url(#paint1_linear_98_340)"/>
</g>
<g clip-path="url(#clip2_98_340)">
<path opacity="0.25" d="M169.563 86.0223C165.058 91.9918 166.235 100.476 172.193 104.971C178.15 109.467 186.632 108.272 191.136 102.303C195.641 96.3329 194.464 87.8492 188.506 83.3535C182.549 78.8578 174.068 80.0527 169.563 86.0223Z" fill="url(#paint2_linear_98_340)"/>
</g>
<g clip-path="url(#clip3_98_340)">
<path opacity="0.25" d="M111.653 116.306C118.215 124.494 130.159 125.823 138.331 119.274C146.502 112.725 147.806 100.778 141.244 92.5901C134.681 84.402 122.737 83.0732 114.566 89.6222C106.395 96.1713 105.09 108.118 111.653 116.306Z" fill="url(#paint3_linear_98_340)"/>
</g>
<g clip-path="url(#clip4_98_340)">
<path opacity="0.25" d="M13.3542 13.5774C9.20751 19.0723 10.2914 26.8816 15.7751 31.0199C21.2588 35.1581 29.0659 34.0583 33.2126 28.5633C37.3594 23.0683 36.2755 15.259 30.7918 11.1208C25.308 6.98254 17.501 8.08238 13.3542 13.5774Z" fill="url(#paint4_linear_98_340)"/>
</g>
<g clip-path="url(#clip5_98_340)">
<path opacity="0.25" d="M28.69 81.8677C22.4901 78.8757 15.0436 81.4658 12.0577 87.653C9.07177 93.8401 11.6772 101.281 17.877 104.273C24.0768 107.265 31.5233 104.675 34.5093 98.4881C37.4952 92.3009 34.8898 84.8597 28.69 81.8677Z" fill="url(#paint5_linear_98_340)"/>
</g>
<g clip-path="url(#clip6_98_340)">
<path opacity="0.25" d="M32.973 47.27C28.6562 41.9076 20.8185 41.0528 15.4671 45.3608C10.1157 49.6688 9.277 57.5082 13.5938 62.8706C17.9107 68.233 25.7483 69.0878 31.0998 64.7797C36.4512 60.4717 37.2899 52.6323 32.973 47.27Z" fill="url(#paint6_linear_98_340)"/>
</g>
<g clip-path="url(#clip7_98_340)">
<path opacity="0.25" d="M19.8324 139.022C26.4463 140.931 33.3529 137.129 35.2589 130.529C37.1649 123.929 33.3485 117.03 26.7346 115.12C20.1208 113.21 13.2142 117.012 11.3082 123.612C9.40219 130.213 13.2186 137.112 19.8324 139.022Z" fill="url(#paint7_linear_98_340)"/>
</g>
<g clip-path="url(#clip8_98_340)">
<path opacity="0.25" d="M62.3881 11.6305C56.1759 8.04395 48.2385 10.1621 44.6592 16.3615C41.08 22.5609 43.2144 30.4941 49.4265 34.0806C55.6386 37.6672 63.5761 35.5491 67.1554 29.3496C70.7346 23.1502 68.6002 15.2171 62.3881 11.6305Z" fill="url(#paint8_linear_98_340)"/>
</g>
<g clip-path="url(#clip9_98_340)">
<path opacity="0.25" d="M94.3878 13.6823C88.1757 10.0957 80.2382 12.2138 76.659 18.4133C73.0797 24.6127 75.2141 32.5458 81.4263 36.1324C87.6384 39.719 95.5759 37.6008 99.1551 31.4014C102.734 25.202 100.6 17.2689 94.3878 13.6823Z" fill="url(#paint9_linear_98_340)"/>
</g>
<g clip-path="url(#clip10_98_340)">
<path opacity="0.25" d="M99.3878 46.6823C93.1757 43.0957 85.2382 45.2138 81.659 51.4133C78.0797 57.6127 80.2141 65.5458 86.4263 69.1324C92.6384 72.719 100.576 70.6008 104.155 64.4014C107.734 58.202 105.6 50.2689 99.3878 46.6823Z" fill="url(#paint10_linear_98_340)"/>
</g>
<g clip-path="url(#clip11_98_340)">
<path opacity="0.25" d="M209.388 13.6823C203.176 10.0957 195.238 12.2138 191.659 18.4133C188.08 24.6127 190.214 32.5458 196.426 36.1324C202.638 39.719 210.576 37.6008 214.155 31.4014C217.734 25.202 215.6 17.2689 209.388 13.6823Z" fill="url(#paint11_linear_98_340)"/>
</g>
<g clip-path="url(#clip12_98_340)">
<path opacity="0.25" d="M138.388 52.6823C132.176 49.0957 124.238 51.2138 120.659 57.4133C117.08 63.6127 119.214 71.5458 125.426 75.1324C131.638 78.719 139.576 76.6008 143.155 70.4014C146.734 64.202 144.6 56.2689 138.388 52.6823Z" fill="url(#paint12_linear_98_340)"/>
</g>
<g clip-path="url(#clip13_98_340)">
<path opacity="0.25" d="M293.388 69.6823C287.176 66.0957 279.238 68.2138 275.659 74.4133C272.08 80.6127 274.214 88.5458 280.426 92.1324C286.638 95.719 294.576 93.6008 298.155 87.4014C301.734 81.202 299.6 73.2689 293.388 69.6823Z" fill="url(#paint13_linear_98_340)"/>
</g>
<g clip-path="url(#clip14_98_340)">
<path opacity="0.25" d="M239.388 33.6823C233.176 30.0957 225.238 32.2138 221.659 38.4133C218.08 44.6127 220.214 52.5458 226.426 56.1324C232.638 59.719 240.576 57.6008 244.155 51.4014C247.734 45.202 245.6 37.2689 239.388 33.6823Z" fill="url(#paint14_linear_98_340)"/>
</g>
<g clip-path="url(#clip15_98_340)">
<path opacity="0.25" d="M167.388 59.6823C161.176 56.0957 153.238 58.2138 149.659 64.4133C146.08 70.6127 148.214 78.5458 154.426 82.1324C160.638 85.719 168.576 83.6008 172.155 77.4014C175.734 71.202 173.6 63.2689 167.388 59.6823Z" fill="url(#paint15_linear_98_340)"/>
</g>
<g clip-path="url(#clip16_98_340)">
<path opacity="0.25" d="M234.388 94.6823C228.176 91.0957 220.238 93.2138 216.659 99.4133C213.08 105.613 215.214 113.546 221.426 117.132C227.638 120.719 235.576 118.601 239.155 112.401C242.734 106.202 240.6 98.2689 234.388 94.6823Z" fill="url(#paint16_linear_98_340)"/>
</g>
<g clip-path="url(#clip17_98_340)">
<path opacity="0.25" d="M193.388 94.6823C187.176 91.0957 179.238 93.2138 175.659 99.4133C172.08 105.613 174.214 113.546 180.426 117.132C186.638 120.719 194.576 118.601 198.155 112.401C201.734 106.202 199.6 98.2689 193.388 94.6823Z" fill="url(#paint17_linear_98_340)"/>
</g>
<g clip-path="url(#clip18_98_340)">
<path opacity="0.25" d="M147.388 95.6823C141.176 92.0957 133.238 94.2138 129.659 100.413C126.08 106.613 128.214 114.546 134.426 118.132C140.638 121.719 148.576 119.601 152.155 113.401C155.734 107.202 153.6 99.2689 147.388 95.6823Z" fill="url(#paint18_linear_98_340)"/>
</g>
<g clip-path="url(#clip19_98_340)">
<path opacity="0.25" d="M253.388 7.68228C247.176 4.09571 239.238 6.21384 235.659 12.4133C232.08 18.6127 234.214 26.5458 240.426 30.1324C246.638 33.719 254.576 31.6008 258.155 25.4014C261.734 19.202 259.6 11.2689 253.388 7.68228Z" fill="url(#paint19_linear_98_340)"/>
</g>
<g clip-path="url(#clip20_98_340)">
<path opacity="0.25" d="M284.388 7.68228C278.176 4.09571 270.238 6.21384 266.659 12.4133C263.08 18.6127 265.214 26.5458 271.426 30.1324C277.638 33.719 285.576 31.6008 289.155 25.4014C292.734 19.202 290.6 11.2689 284.388 7.68228Z" fill="url(#paint20_linear_98_340)"/>
</g>
<g clip-path="url(#clip21_98_340)">
<path opacity="0.25" d="M147.388 7.68228C141.176 4.09571 133.238 6.21384 129.659 12.4133C126.08 18.6127 128.214 26.5458 134.426 30.1324C140.638 33.719 148.576 31.6008 152.155 25.4014C155.734 19.202 153.6 11.2689 147.388 7.68228Z" fill="url(#paint21_linear_98_340)"/>
</g>
<g clip-path="url(#clip22_98_340)">
<path opacity="0.25" d="M115.388 4.68228C109.176 1.09571 101.238 3.21384 97.659 9.41327C94.0797 15.6127 96.2141 23.5458 102.426 27.1324C108.638 30.719 116.576 28.6008 120.155 22.4014C123.734 16.202 121.6 8.26886 115.388 4.68228Z" fill="url(#paint22_linear_98_340)"/>
</g>
<g clip-path="url(#clip23_98_340)">
<path opacity="0.25" d="M182.388 54.6823C176.176 51.0957 168.238 53.2138 164.659 59.4133C161.08 65.6127 163.214 73.5458 169.426 77.1324C175.638 80.719 183.576 78.6008 187.155 72.4014C190.734 66.202 188.6 58.2689 182.388 54.6823Z" fill="url(#paint23_linear_98_340)"/>
</g>
<g clip-path="url(#clip24_98_340)">
<path opacity="0.25" d="M325.388 7.68228C319.176 4.09571 311.238 6.21384 307.659 12.4133C304.08 18.6127 306.214 26.5458 312.426 30.1324C318.638 33.719 326.576 31.6008 330.155 25.4014C333.734 19.202 331.6 11.2689 325.388 7.68228Z" fill="url(#paint24_linear_98_340)"/>
</g>
<g clip-path="url(#clip25_98_340)">
<path opacity="0.25" d="M208.388 81.6823C202.176 78.0957 194.238 80.2138 190.659 86.4133C187.08 92.6127 189.214 100.546 195.426 104.132C201.638 107.719 209.576 105.601 213.155 99.4014C216.734 93.202 214.6 85.2689 208.388 81.6823Z" fill="url(#paint25_linear_98_340)"/>
</g>
<g clip-path="url(#clip26_98_340)">
<path opacity="0.25" d="M185.388 36.6823C179.176 33.0957 171.238 35.2138 167.659 41.4133C164.08 47.6127 166.214 55.5458 172.426 59.1324C178.638 62.719 186.576 60.6008 190.155 54.4014C193.734 48.202 191.6 40.2689 185.388 36.6823Z" fill="url(#paint26_linear_98_340)"/>
</g>
<g clip-path="url(#clip27_98_340)">
<path opacity="0.25" d="M75.3878 62.6823C69.1757 59.0957 61.2382 61.2138 57.659 67.4133C54.0797 73.6127 56.2141 81.5458 62.4263 85.1324C68.6384 88.719 76.5759 86.6008 80.1551 80.4014C83.7344 74.202 81.6 66.2689 75.3878 62.6823Z" fill="url(#paint27_linear_98_340)"/>
</g>
<g clip-path="url(#clip28_98_340)">
<path opacity="0.25" d="M42.3878 32.6823C36.1757 29.0957 28.2382 31.2138 24.659 37.4133C21.0797 43.6127 23.2141 51.5458 29.4263 55.1324C35.6384 58.719 43.5759 56.6008 47.1551 50.4014C50.7344 44.202 48.6 36.2689 42.3878 32.6823Z" fill="url(#paint28_linear_98_340)"/>
</g>
<g clip-path="url(#clip29_98_340)">
<path opacity="0.25" d="M26.3878 95.6823C20.1757 92.0957 12.2382 94.2138 8.65898 100.413C5.07974 106.613 7.21412 114.546 13.4263 118.132C19.6384 121.719 27.5759 119.601 31.1551 113.401C34.7344 107.202 32.6 99.2689 26.3878 95.6823Z" fill="url(#paint29_linear_98_340)"/>
</g>
<g clip-path="url(#clip30_98_340)">
<path opacity="0.25" d="M332.388 78.6823C326.176 75.0957 318.238 77.2138 314.659 83.4133C311.08 89.6127 313.214 97.5458 319.426 101.132C325.638 104.719 333.576 102.601 337.155 96.4014C340.734 90.202 338.6 82.2689 332.388 78.6823Z" fill="url(#paint30_linear_98_340)"/>
</g>
<g clip-path="url(#clip31_98_340)">
<path opacity="0.25" d="M269.388 94.6823C263.176 91.0957 255.238 93.2138 251.659 99.4133C248.08 105.613 250.214 113.546 256.426 117.132C262.638 120.719 270.576 118.601 274.155 112.401C277.734 106.202 275.6 98.2689 269.388 94.6823Z" fill="url(#paint31_linear_98_340)"/>
</g>
<g clip-path="url(#clip32_98_340)">
<path opacity="0.25" d="M68.3878 9.68228C62.1757 6.09571 54.2382 8.21384 50.659 14.4133C47.0797 20.6127 49.2141 28.5458 55.4263 32.1324C61.6384 35.719 69.5759 33.6008 73.1551 27.4014C76.7344 21.202 74.6 13.2689 68.3878 9.68228Z" fill="url(#paint32_linear_98_340)"/>
</g>
<g clip-path="url(#clip33_98_340)">
<path opacity="0.25" d="M238.388 7.68228C232.176 4.09571 224.238 6.21384 220.659 12.4133C217.08 18.6127 219.214 26.5458 225.426 30.1324C231.638 33.719 239.576 31.6008 243.155 25.4014C246.734 19.202 244.6 11.2689 238.388 7.68228Z" fill="url(#paint33_linear_98_340)"/>
</g>
<g clip-path="url(#clip34_98_340)">
<path opacity="0.25" d="M104.388 79.6823C98.1757 76.0957 90.2382 78.2138 86.659 84.4133C83.0797 90.6127 85.2141 98.5458 91.4263 102.132C97.6384 105.719 105.576 103.601 109.155 97.4014C112.734 91.202 110.6 83.2689 104.388 79.6823Z" fill="url(#paint34_linear_98_340)"/>
</g>
<g clip-path="url(#clip35_98_340)">
<path opacity="0.25" d="M214.388 46.6823C208.176 43.0957 200.238 45.2138 196.659 51.4133C193.08 57.6127 195.214 65.5458 201.426 69.1324C207.638 72.719 215.576 70.6008 219.155 64.4014C222.734 58.202 220.6 50.2689 214.388 46.6823Z" fill="url(#paint35_linear_98_340)"/>
</g>
<g clip-path="url(#clip36_98_340)">
<path opacity="0.25" d="M143.388 85.6823C137.176 82.0957 129.238 84.2138 125.659 90.4133C122.08 96.6127 124.214 104.546 130.426 108.132C136.638 111.719 144.576 109.601 148.155 103.401C151.734 97.202 149.6 89.2689 143.388 85.6823Z" fill="url(#paint36_linear_98_340)"/>
</g>
<g clip-path="url(#clip37_98_340)">
<path opacity="0.25" d="M298.388 102.682C292.176 99.0957 284.238 101.214 280.659 107.413C277.08 113.613 279.214 121.546 285.426 125.132C291.638 128.719 299.576 126.601 303.155 120.401C306.734 114.202 304.6 106.269 298.388 102.682Z" fill="url(#paint37_linear_98_340)"/>
</g>
<g clip-path="url(#clip38_98_340)">
<path opacity="0.25" d="M244.388 66.6823C238.176 63.0957 230.238 65.2138 226.659 71.4133C223.08 77.6127 225.214 85.5458 231.426 89.1324C237.638 92.719 245.576 90.6008 249.155 84.4014C252.734 78.202 250.6 70.2689 244.388 66.6823Z" fill="url(#paint38_linear_98_340)"/>
</g>
<g clip-path="url(#clip39_98_340)">
<path opacity="0.25" d="M172.388 92.6823C166.176 89.0957 158.238 91.2138 154.659 97.4133C151.08 103.613 153.214 111.546 159.426 115.132C165.638 118.719 173.576 116.601 177.155 110.401C180.734 104.202 178.6 96.2689 172.388 92.6823Z" fill="url(#paint39_linear_98_340)"/>
</g>
<g clip-path="url(#clip40_98_340)">
<path opacity="0.25" d="M239.388 127.682C233.176 124.096 225.238 126.214 221.659 132.413C218.08 138.613 220.214 146.546 226.426 150.132C232.638 153.719 240.576 151.601 244.155 145.401C247.734 139.202 245.6 131.269 239.388 127.682Z" fill="url(#paint40_linear_98_340)"/>
</g>
<g clip-path="url(#clip41_98_340)">
<path opacity="0.25" d="M198.388 127.682C192.176 124.096 184.238 126.214 180.659 132.413C177.08 138.613 179.214 146.546 185.426 150.132C191.638 153.719 199.576 151.601 203.155 145.401C206.734 139.202 204.6 131.269 198.388 127.682Z" fill="url(#paint41_linear_98_340)"/>
</g>
<g clip-path="url(#clip42_98_340)">
<path opacity="0.25" d="M152.388 128.682C146.176 125.096 138.238 127.214 134.659 133.413C131.08 139.613 133.214 147.546 139.426 151.132C145.638 154.719 153.576 152.601 157.155 146.401C160.734 140.202 158.6 132.269 152.388 128.682Z" fill="url(#paint42_linear_98_340)"/>
</g>
<g clip-path="url(#clip43_98_340)">
<path opacity="0.25" d="M258.388 40.6823C252.176 37.0957 244.238 39.2138 240.659 45.4133C237.08 51.6127 239.214 59.5458 245.426 63.1324C251.638 66.719 259.576 64.6008 263.155 58.4014C266.734 52.202 264.6 44.2689 258.388 40.6823Z" fill="url(#paint43_linear_98_340)"/>
</g>
<g clip-path="url(#clip44_98_340)">
<path opacity="0.25" d="M289.388 40.6823C283.176 37.0957 275.238 39.2138 271.659 45.4133C268.08 51.6127 270.214 59.5458 276.426 63.1324C282.638 66.719 290.576 64.6008 294.155 58.4014C297.734 52.202 295.6 44.2689 289.388 40.6823Z" fill="url(#paint44_linear_98_340)"/>
</g>
<g clip-path="url(#clip45_98_340)">
<path opacity="0.25" d="M152.388 40.6823C146.176 37.0957 138.238 39.2138 134.659 45.4133C131.08 51.6127 133.214 59.5458 139.426 63.1324C145.638 66.719 153.576 64.6008 157.155 58.4014C160.734 52.202 158.6 44.2689 152.388 40.6823Z" fill="url(#paint45_linear_98_340)"/>
</g>
<g clip-path="url(#clip46_98_340)">
<path opacity="0.25" d="M120.388 37.6823C114.176 34.0957 106.238 36.2138 102.659 42.4133C99.0797 48.6127 101.214 56.5458 107.426 60.1324C113.638 63.719 121.576 61.6008 125.155 55.4014C128.734 49.202 126.6 41.2689 120.388 37.6823Z" fill="url(#paint46_linear_98_340)"/>
</g>
<g clip-path="url(#clip47_98_340)">
<path opacity="0.25" d="M187.388 87.6823C181.176 84.0957 173.238 86.2138 169.659 92.4133C166.08 98.6127 168.214 106.546 174.426 110.132C180.638 113.719 188.576 111.601 192.155 105.401C195.734 99.202 193.6 91.2689 187.388 87.6823Z" fill="url(#paint47_linear_98_340)"/>
</g>
<g clip-path="url(#clip48_98_340)">
<path opacity="0.25" d="M330.388 40.6823C324.176 37.0957 316.238 39.2138 312.659 45.4133C309.08 51.6127 311.214 59.5458 317.426 63.1324C323.638 66.719 331.576 64.6008 335.155 58.4014C338.734 52.202 336.6 44.2689 330.388 40.6823Z" fill="url(#paint48_linear_98_340)"/>
</g>
<g clip-path="url(#clip49_98_340)">
<path opacity="0.25" d="M213.388 114.682C207.176 111.096 199.238 113.214 195.659 119.413C192.08 125.613 194.214 133.546 200.426 137.132C206.638 140.719 214.576 138.601 218.155 132.401C221.734 126.202 219.6 118.269 213.388 114.682Z" fill="url(#paint49_linear_98_340)"/>
</g>
<g clip-path="url(#clip50_98_340)">
<path opacity="0.25" d="M190.388 69.6823C184.176 66.0957 176.238 68.2138 172.659 74.4133C169.08 80.6127 171.214 88.5458 177.426 92.1324C183.638 95.719 191.576 93.6008 195.155 87.4014C198.734 81.202 196.6 73.2689 190.388 69.6823Z" fill="url(#paint50_linear_98_340)"/>
</g>
<g clip-path="url(#clip51_98_340)">
<path opacity="0.25" d="M80.3878 95.6823C74.1757 92.0957 66.2382 94.2138 62.659 100.413C59.0797 106.613 61.2141 114.546 67.4263 118.132C73.6384 121.719 81.5759 119.601 85.1551 113.401C88.7344 107.202 86.6 99.2689 80.3878 95.6823Z" fill="url(#paint51_linear_98_340)"/>
</g>
<g clip-path="url(#clip52_98_340)">
<path opacity="0.25" d="M47.3878 65.6823C41.1757 62.0957 33.2382 64.2138 29.659 70.4133C26.0797 76.6127 28.2141 84.5458 34.4263 88.1324C40.6384 91.719 48.5759 89.6008 52.1551 83.4014C55.7344 77.202 53.6 69.2689 47.3878 65.6823Z" fill="url(#paint52_linear_98_340)"/>
</g>
<g clip-path="url(#clip53_98_340)">
<path opacity="0.25" d="M31.3878 128.682C25.1757 125.096 17.2382 127.214 13.659 133.413C10.0797 139.613 12.2141 147.546 18.4263 151.132C24.6384 154.719 32.5759 152.601 36.1551 146.401C39.7344 140.202 37.6 132.269 31.3878 128.682Z" fill="url(#paint53_linear_98_340)"/>
</g>
<g clip-path="url(#clip54_98_340)">
<path opacity="0.25" d="M337.388 111.682C331.176 108.096 323.238 110.214 319.659 116.413C316.08 122.613 318.214 130.546 324.426 134.132C330.638 137.719 338.576 135.601 342.155 129.401C345.734 123.202 343.6 115.269 337.388 111.682Z" fill="url(#paint54_linear_98_340)"/>
</g>
<g clip-path="url(#clip55_98_340)">
<path opacity="0.25" d="M274.388 127.682C268.176 124.096 260.238 126.214 256.659 132.413C253.08 138.613 255.214 146.546 261.426 150.132C267.638 153.719 275.576 151.601 279.155 145.401C282.734 139.202 280.6 131.269 274.388 127.682Z" fill="url(#paint55_linear_98_340)"/>
</g>
<g clip-path="url(#clip56_98_340)">
<path opacity="0.25" d="M73.3878 42.6823C67.1757 39.0957 59.2382 41.2138 55.659 47.4133C52.0797 53.6127 54.2141 61.5458 60.4263 65.1324C66.6384 68.719 74.5759 66.6008 78.1551 60.4014C81.7344 54.202 79.6 46.2689 73.3878 42.6823Z" fill="url(#paint56_linear_98_340)"/>
</g>
<g clip-path="url(#clip57_98_340)">
<path opacity="0.25" d="M243.388 40.6823C237.176 37.0957 229.238 39.2138 225.659 45.4133C222.08 51.6127 224.214 59.5458 230.426 63.1324C236.638 66.719 244.576 64.6008 248.155 58.4014C251.734 52.202 249.6 44.2689 243.388 40.6823Z" fill="url(#paint57_linear_98_340)"/>
</g>
<g clip-path="url(#clip58_98_340)">
<path opacity="0.25" d="M109.388 112.682C103.176 109.096 95.2382 111.214 91.659 117.413C88.0797 123.613 90.2141 131.546 96.4263 135.132C102.638 138.719 110.576 136.601 114.155 130.401C117.734 124.202 115.6 116.269 109.388 112.682Z" fill="url(#paint58_linear_98_340)"/>
</g>
<g clip-path="url(#clip59_98_340)">
<path opacity="0.25" d="M165.847 41.1349C172.518 38.4974 175.792 30.9627 173.16 24.3057C170.527 17.6486 162.986 14.3901 156.315 17.0276C149.645 19.6651 146.371 27.1998 149.003 33.8568C151.635 40.5139 159.176 43.7723 165.847 41.1349Z" fill="url(#paint59_linear_98_340)"/>
</g>
<g clip-path="url(#clip60_98_340)">
<path opacity="0.25" d="M131.388 20.6823C125.176 17.0957 117.238 19.2138 113.659 25.4133C110.08 31.6127 112.214 39.5458 118.426 43.1324C124.638 46.719 132.576 44.6008 136.155 38.4014C139.734 32.202 137.6 24.2689 131.388 20.6823Z" fill="url(#paint60_linear_98_340)"/>
</g>
<g clip-path="url(#clip61_98_340)">
<path opacity="0.25" d="M58.0968 67.2623C65.0255 65.4057 69.1404 58.2953 67.2877 51.3807C65.4349 44.4662 58.3161 40.3659 51.3874 42.2224C44.4586 44.079 40.3437 51.1893 42.1965 58.1039C44.0493 65.0185 51.1681 69.1188 58.0968 67.2623Z" fill="url(#paint61_linear_98_340)"/>
</g>
<g clip-path="url(#clip62_98_340)">
<path opacity="0.25" d="M56.4139 79.8488C49.2785 80.5839 44.0888 86.9523 44.8223 94.0731C45.5558 101.194 51.9348 106.371 59.0702 105.636C66.2056 104.901 71.3954 98.5321 70.6619 91.4113C69.9283 84.2905 63.5493 79.1138 56.4139 79.8488Z" fill="url(#paint62_linear_98_340)"/>
</g>
<g clip-path="url(#clip63_98_340)">
<path opacity="0.25" d="M70.3313 130.445C74.8544 124.877 74.0171 116.705 68.4611 112.191C62.9051 107.677 54.7343 108.531 50.2113 114.099C45.6882 119.666 46.5255 127.838 52.0815 132.352C57.6375 136.866 65.8082 136.012 70.3313 130.445Z" fill="url(#paint63_linear_98_340)"/>
</g>
<g clip-path="url(#clip64_98_340)">
<path opacity="0.25" d="M104.316 145.429C108.839 139.862 108.002 131.69 102.446 127.176C96.8899 122.662 88.7192 123.516 84.1961 129.083C79.673 134.651 80.5104 142.823 86.0664 147.337C91.6224 151.851 99.7931 150.997 104.316 145.429Z" fill="url(#paint64_linear_98_340)"/>
</g>
<g clip-path="url(#clip65_98_340)">
<path opacity="0.25" d="M335.239 15.5159C329.199 12.0288 321.482 14.0882 318.002 20.1157C314.522 26.1431 316.597 33.8562 322.637 37.3433C328.677 40.8304 336.394 38.771 339.874 32.7435C343.354 26.7161 341.279 19.003 335.239 15.5159Z" fill="url(#paint65_linear_98_340)"/>
</g>
<g clip-path="url(#clip66_98_340)">
<path opacity="0.25" d="M290.273 22.1226C286.662 27.2504 287.883 34.3285 293 37.932C298.118 41.5355 305.193 40.2997 308.804 35.1719C312.415 30.0441 311.194 22.966 306.076 19.3625C300.959 15.7591 293.883 16.9948 290.273 22.1226Z" fill="url(#paint66_linear_98_340)"/>
</g>
<g clip-path="url(#clip67_98_340)">
<path opacity="0.25" d="M309.671 68.2714C314.541 73.1416 322.429 73.1496 327.289 68.2894C332.149 63.4291 332.141 55.541 327.271 50.6708C322.401 45.8006 314.513 45.7925 309.653 50.6528C304.792 55.513 304.8 63.4011 309.671 68.2714Z" fill="url(#paint67_linear_98_340)"/>
</g>
</g>
<defs>
<filter id="filter0_d_98_340" x="0" y="0" width="357" height="163.814" filterUnits="userSpaceOnUse" color-interpolation-filters="sRGB">
<feFlood flood-opacity="0" result="BackgroundImageFix"/>
<feColorMatrix in="SourceAlpha" type="matrix" values="0 0 0 0 0 0 0 0 0 0 0 0 0 0 0 0 0 0 127 0" result="hardAlpha"/>
<feOffset dy="4"/>
<feGaussianBlur stdDeviation="2"/>
<feComposite in2="hardAlpha" operator="out"/>
<feColorMatrix type="matrix" values="0 0 0 0 0 0 0 0 0 0 0 0 0 0 0 0 0 0 0.25 0"/>
<feBlend mode="normal" in2="BackgroundImageFix" result="effect1_dropShadow_98_340"/>
<feBlend mode="normal" in="SourceGraphic" in2="effect1_dropShadow_98_340" result="shape"/>
</filter>
<linearGradient id="paint0_linear_98_340" x1="239.275" y1="102.725" x2="258.879" y2="83.1208" gradientUnits="userSpaceOnUse">
<stop stop-color="#0989B4" stop-opacity="0"/>
<stop offset="0.9994" stop-color="#53FFEE"/>
</linearGradient>
<linearGradient id="paint1_linear_98_340" x1="250.817" y1="40.1834" x2="268.321" y2="22.6793" gradientUnits="userSpaceOnUse">
<stop stop-color="#0989B4" stop-opacity="0"/>
<stop offset="0.9994" stop-color="#53FFEE"/>
</linearGradient>
<linearGradient id="paint2_linear_98_340" x1="190.968" y1="102.176" x2="169.563" y2="86.0223" gradientUnits="userSpaceOnUse">
<stop stop-color="#0989B4" stop-opacity="0"/>
<stop offset="0.9994" stop-color="#53FFEE"/>
</linearGradient>
<linearGradient id="paint3_linear_98_340" x1="141.013" y1="92.7749" x2="111.653" y2="116.306" gradientUnits="userSpaceOnUse">
<stop stop-color="#0989B4" stop-opacity="0"/>
<stop offset="0.9994" stop-color="#53FFEE"/>
</linearGradient>
<linearGradient id="paint4_linear_98_340" x1="33.0579" y1="28.4466" x2="13.3542" y2="13.5774" gradientUnits="userSpaceOnUse">
<stop stop-color="#0989B4" stop-opacity="0"/>
<stop offset="0.9994" stop-color="#53FFEE"/>
</linearGradient>
<linearGradient id="paint5_linear_98_340" x1="17.9612" y1="104.099" x2="28.69" y2="81.8677" gradientUnits="userSpaceOnUse">
<stop stop-color="#0989B4" stop-opacity="0"/>
<stop offset="0.9994" stop-color="#53FFEE"/>
</linearGradient>
<linearGradient id="paint6_linear_98_340" x1="13.7448" y1="62.7491" x2="32.973" y2="47.27" gradientUnits="userSpaceOnUse">
<stop stop-color="#0989B4" stop-opacity="0"/>
<stop offset="0.9994" stop-color="#53FFEE"/>
</linearGradient>
<linearGradient id="paint7_linear_98_340" x1="26.6809" y1="115.306" x2="19.8325" y2="139.022" gradientUnits="userSpaceOnUse">
<stop stop-color="#0989B4" stop-opacity="0"/>
<stop offset="0.9994" stop-color="#53FFEE"/>
</linearGradient>
<linearGradient id="paint8_linear_98_340" x1="49.5275" y1="33.9058" x2="62.3881" y2="11.6305" gradientUnits="userSpaceOnUse">
<stop stop-color="#0989B4" stop-opacity="0"/>
<stop offset="0.9994" stop-color="#53FFEE"/>
</linearGradient>
<linearGradient id="paint9_linear_98_340" x1="81.5272" y1="35.9575" x2="94.3878" y2="13.6823" gradientUnits="userSpaceOnUse">
<stop stop-color="#0989B4" stop-opacity="0"/>
<stop offset="0.9994" stop-color="#53FFEE"/>
</linearGradient>
<linearGradient id="paint10_linear_98_340" x1="86.5272" y1="68.9575" x2="99.3878" y2="46.6823" gradientUnits="userSpaceOnUse">
<stop stop-color="#0989B4" stop-opacity="0"/>
<stop offset="0.9994" stop-color="#53FFEE"/>
</linearGradient>
<linearGradient id="paint11_linear_98_340" x1="196.527" y1="35.9575" x2="209.388" y2="13.6823" gradientUnits="userSpaceOnUse">
<stop stop-color="#0989B4" stop-opacity="0"/>
<stop offset="0.9994" stop-color="#53FFEE"/>
</linearGradient>
<linearGradient id="paint12_linear_98_340" x1="125.527" y1="74.9575" x2="138.388" y2="52.6823" gradientUnits="userSpaceOnUse">
<stop stop-color="#0989B4" stop-opacity="0"/>
<stop offset="0.9994" stop-color="#53FFEE"/>
</linearGradient>
<linearGradient id="paint13_linear_98_340" x1="280.527" y1="91.9575" x2="293.388" y2="69.6823" gradientUnits="userSpaceOnUse">
<stop stop-color="#0989B4" stop-opacity="0"/>
<stop offset="0.9994" stop-color="#53FFEE"/>
</linearGradient>
<linearGradient id="paint14_linear_98_340" x1="226.527" y1="55.9575" x2="239.388" y2="33.6823" gradientUnits="userSpaceOnUse">
<stop stop-color="#0989B4" stop-opacity="0"/>
<stop offset="0.9994" stop-color="#53FFEE"/>
</linearGradient>
<linearGradient id="paint15_linear_98_340" x1="154.527" y1="81.9575" x2="167.388" y2="59.6823" gradientUnits="userSpaceOnUse">
<stop stop-color="#0989B4" stop-opacity="0"/>
<stop offset="0.9994" stop-color="#53FFEE"/>
</linearGradient>
<linearGradient id="paint16_linear_98_340" x1="221.527" y1="116.958" x2="234.388" y2="94.6823" gradientUnits="userSpaceOnUse">
<stop stop-color="#0989B4" stop-opacity="0"/>
<stop offset="0.9994" stop-color="#53FFEE"/>
</linearGradient>
<linearGradient id="paint17_linear_98_340" x1="180.527" y1="116.958" x2="193.388" y2="94.6823" gradientUnits="userSpaceOnUse">
<stop stop-color="#0989B4" stop-opacity="0"/>
<stop offset="0.9994" stop-color="#53FFEE"/>
</linearGradient>
<linearGradient id="paint18_linear_98_340" x1="134.527" y1="117.958" x2="147.388" y2="95.6823" gradientUnits="userSpaceOnUse">
<stop stop-color="#0989B4" stop-opacity="0"/>
<stop offset="0.9994" stop-color="#53FFEE"/>
</linearGradient>
<linearGradient id="paint19_linear_98_340" x1="240.527" y1="29.9575" x2="253.388" y2="7.68228" gradientUnits="userSpaceOnUse">
<stop stop-color="#0989B4" stop-opacity="0"/>
<stop offset="0.9994" stop-color="#53FFEE"/>
</linearGradient>
<linearGradient id="paint20_linear_98_340" x1="271.527" y1="29.9575" x2="284.388" y2="7.68228" gradientUnits="userSpaceOnUse">
<stop stop-color="#0989B4" stop-opacity="0"/>
<stop offset="0.9994" stop-color="#53FFEE"/>
</linearGradient>
<linearGradient id="paint21_linear_98_340" x1="134.527" y1="29.9575" x2="147.388" y2="7.68228" gradientUnits="userSpaceOnUse">
<stop stop-color="#0989B4" stop-opacity="0"/>
<stop offset="0.9994" stop-color="#53FFEE"/>
</linearGradient>
<linearGradient id="paint22_linear_98_340" x1="102.527" y1="26.9575" x2="115.388" y2="4.68228" gradientUnits="userSpaceOnUse">
<stop stop-color="#0989B4" stop-opacity="0"/>
<stop offset="0.9994" stop-color="#53FFEE"/>
</linearGradient>
<linearGradient id="paint23_linear_98_340" x1="169.527" y1="76.9575" x2="182.388" y2="54.6823" gradientUnits="userSpaceOnUse">
<stop stop-color="#0989B4" stop-opacity="0"/>
<stop offset="0.9994" stop-color="#53FFEE"/>
</linearGradient>
<linearGradient id="paint24_linear_98_340" x1="312.527" y1="29.9575" x2="325.388" y2="7.68228" gradientUnits="userSpaceOnUse">
<stop stop-color="#0989B4" stop-opacity="0"/>
<stop offset="0.9994" stop-color="#53FFEE"/>
</linearGradient>
<linearGradient id="paint25_linear_98_340" x1="195.527" y1="103.958" x2="208.388" y2="81.6823" gradientUnits="userSpaceOnUse">
<stop stop-color="#0989B4" stop-opacity="0"/>
<stop offset="0.9994" stop-color="#53FFEE"/>
</linearGradient>
<linearGradient id="paint26_linear_98_340" x1="172.527" y1="58.9575" x2="185.388" y2="36.6823" gradientUnits="userSpaceOnUse">
<stop stop-color="#0989B4" stop-opacity="0"/>
<stop offset="0.9994" stop-color="#53FFEE"/>
</linearGradient>
<linearGradient id="paint27_linear_98_340" x1="62.5272" y1="84.9575" x2="75.3878" y2="62.6823" gradientUnits="userSpaceOnUse">
<stop stop-color="#0989B4" stop-opacity="0"/>
<stop offset="0.9994" stop-color="#53FFEE"/>
</linearGradient>
<linearGradient id="paint28_linear_98_340" x1="29.5272" y1="54.9575" x2="42.3878" y2="32.6823" gradientUnits="userSpaceOnUse">
<stop stop-color="#0989B4" stop-opacity="0"/>
<stop offset="0.9994" stop-color="#53FFEE"/>
</linearGradient>
<linearGradient id="paint29_linear_98_340" x1="13.5272" y1="117.958" x2="26.3878" y2="95.6823" gradientUnits="userSpaceOnUse">
<stop stop-color="#0989B4" stop-opacity="0"/>
<stop offset="0.9994" stop-color="#53FFEE"/>
</linearGradient>
<linearGradient id="paint30_linear_98_340" x1="319.527" y1="100.958" x2="332.388" y2="78.6823" gradientUnits="userSpaceOnUse">
<stop stop-color="#0989B4" stop-opacity="0"/>
<stop offset="0.9994" stop-color="#53FFEE"/>
</linearGradient>
<linearGradient id="paint31_linear_98_340" x1="256.527" y1="116.958" x2="269.388" y2="94.6823" gradientUnits="userSpaceOnUse">
<stop stop-color="#0989B4" stop-opacity="0"/>
<stop offset="0.9994" stop-color="#53FFEE"/>
</linearGradient>
<linearGradient id="paint32_linear_98_340" x1="55.5272" y1="31.9575" x2="68.3878" y2="9.68228" gradientUnits="userSpaceOnUse">
<stop stop-color="#0989B4" stop-opacity="0"/>
<stop offset="0.9994" stop-color="#53FFEE"/>
</linearGradient>
<linearGradient id="paint33_linear_98_340" x1="225.527" y1="29.9575" x2="238.388" y2="7.68228" gradientUnits="userSpaceOnUse">
<stop stop-color="#0989B4" stop-opacity="0"/>
<stop offset="0.9994" stop-color="#53FFEE"/>
</linearGradient>
<linearGradient id="paint34_linear_98_340" x1="91.5272" y1="101.958" x2="104.388" y2="79.6823" gradientUnits="userSpaceOnUse">
<stop stop-color="#0989B4" stop-opacity="0"/>
<stop offset="0.9994" stop-color="#53FFEE"/>
</linearGradient>
<linearGradient id="paint35_linear_98_340" x1="201.527" y1="68.9575" x2="214.388" y2="46.6823" gradientUnits="userSpaceOnUse">
<stop stop-color="#0989B4" stop-opacity="0"/>
<stop offset="0.9994" stop-color="#53FFEE"/>
</linearGradient>
<linearGradient id="paint36_linear_98_340" x1="130.527" y1="107.958" x2="143.388" y2="85.6823" gradientUnits="userSpaceOnUse">
<stop stop-color="#0989B4" stop-opacity="0"/>
<stop offset="0.9994" stop-color="#53FFEE"/>
</linearGradient>
<linearGradient id="paint37_linear_98_340" x1="285.527" y1="124.958" x2="298.388" y2="102.682" gradientUnits="userSpaceOnUse">
<stop stop-color="#0989B4" stop-opacity="0"/>
<stop offset="0.9994" stop-color="#53FFEE"/>
</linearGradient>
<linearGradient id="paint38_linear_98_340" x1="231.527" y1="88.9575" x2="244.388" y2="66.6823" gradientUnits="userSpaceOnUse">
<stop stop-color="#0989B4" stop-opacity="0"/>
<stop offset="0.9994" stop-color="#53FFEE"/>
</linearGradient>
<linearGradient id="paint39_linear_98_340" x1="159.527" y1="114.958" x2="172.388" y2="92.6823" gradientUnits="userSpaceOnUse">
<stop stop-color="#0989B4" stop-opacity="0"/>
<stop offset="0.9994" stop-color="#53FFEE"/>
</linearGradient>
<linearGradient id="paint40_linear_98_340" x1="226.527" y1="149.958" x2="239.388" y2="127.682" gradientUnits="userSpaceOnUse">
<stop stop-color="#0989B4" stop-opacity="0"/>
<stop offset="0.9994" stop-color="#53FFEE"/>
</linearGradient>
<linearGradient id="paint41_linear_98_340" x1="185.527" y1="149.958" x2="198.388" y2="127.682" gradientUnits="userSpaceOnUse">
<stop stop-color="#0989B4" stop-opacity="0"/>
<stop offset="0.9994" stop-color="#53FFEE"/>
</linearGradient>
<linearGradient id="paint42_linear_98_340" x1="139.527" y1="150.958" x2="152.388" y2="128.682" gradientUnits="userSpaceOnUse">
<stop stop-color="#0989B4" stop-opacity="0"/>
<stop offset="0.9994" stop-color="#53FFEE"/>
</linearGradient>
<linearGradient id="paint43_linear_98_340" x1="245.527" y1="62.9575" x2="258.388" y2="40.6823" gradientUnits="userSpaceOnUse">
<stop stop-color="#0989B4" stop-opacity="0"/>
<stop offset="0.9994" stop-color="#53FFEE"/>
</linearGradient>
<linearGradient id="paint44_linear_98_340" x1="276.527" y1="62.9575" x2="289.388" y2="40.6823" gradientUnits="userSpaceOnUse">
<stop stop-color="#0989B4" stop-opacity="0"/>
<stop offset="0.9994" stop-color="#53FFEE"/>
</linearGradient>
<linearGradient id="paint45_linear_98_340" x1="139.527" y1="62.9575" x2="152.388" y2="40.6823" gradientUnits="userSpaceOnUse">
<stop stop-color="#0989B4" stop-opacity="0"/>
<stop offset="0.9994" stop-color="#53FFEE"/>
</linearGradient>
<linearGradient id="paint46_linear_98_340" x1="107.527" y1="59.9575" x2="120.388" y2="37.6823" gradientUnits="userSpaceOnUse">
<stop stop-color="#0989B4" stop-opacity="0"/>
<stop offset="0.9994" stop-color="#53FFEE"/>
</linearGradient>
<linearGradient id="paint47_linear_98_340" x1="174.527" y1="109.958" x2="187.388" y2="87.6823" gradientUnits="userSpaceOnUse">
<stop stop-color="#0989B4" stop-opacity="0"/>
<stop offset="0.9994" stop-color="#53FFEE"/>
</linearGradient>
<linearGradient id="paint48_linear_98_340" x1="317.527" y1="62.9575" x2="330.388" y2="40.6823" gradientUnits="userSpaceOnUse">
<stop stop-color="#0989B4" stop-opacity="0"/>
<stop offset="0.9994" stop-color="#53FFEE"/>
</linearGradient>
<linearGradient id="paint49_linear_98_340" x1="200.527" y1="136.958" x2="213.388" y2="114.682" gradientUnits="userSpaceOnUse">
<stop stop-color="#0989B4" stop-opacity="0"/>
<stop offset="0.9994" stop-color="#53FFEE"/>
</linearGradient>
<linearGradient id="paint50_linear_98_340" x1="177.527" y1="91.9575" x2="190.388" y2="69.6823" gradientUnits="userSpaceOnUse">
<stop stop-color="#0989B4" stop-opacity="0"/>
<stop offset="0.9994" stop-color="#53FFEE"/>
</linearGradient>
<linearGradient id="paint51_linear_98_340" x1="67.5272" y1="117.958" x2="80.3878" y2="95.6823" gradientUnits="userSpaceOnUse">
<stop stop-color="#0989B4" stop-opacity="0"/>
<stop offset="0.9994" stop-color="#53FFEE"/>
</linearGradient>
<linearGradient id="paint52_linear_98_340" x1="34.5272" y1="87.9575" x2="47.3878" y2="65.6823" gradientUnits="userSpaceOnUse">
<stop stop-color="#0989B4" stop-opacity="0"/>
<stop offset="0.9994" stop-color="#53FFEE"/>
</linearGradient>
<linearGradient id="paint53_linear_98_340" x1="18.5272" y1="150.958" x2="31.3878" y2="128.682" gradientUnits="userSpaceOnUse">
<stop stop-color="#0989B4" stop-opacity="0"/>
<stop offset="0.9994" stop-color="#53FFEE"/>
</linearGradient>
<linearGradient id="paint54_linear_98_340" x1="324.527" y1="133.958" x2="337.388" y2="111.682" gradientUnits="userSpaceOnUse">
<stop stop-color="#0989B4" stop-opacity="0"/>
<stop offset="0.9994" stop-color="#53FFEE"/>
</linearGradient>
<linearGradient id="paint55_linear_98_340" x1="261.527" y1="149.958" x2="274.388" y2="127.682" gradientUnits="userSpaceOnUse">
<stop stop-color="#0989B4" stop-opacity="0"/>
<stop offset="0.9994" stop-color="#53FFEE"/>
</linearGradient>
<linearGradient id="paint56_linear_98_340" x1="60.5272" y1="64.9575" x2="73.3878" y2="42.6823" gradientUnits="userSpaceOnUse">
<stop stop-color="#0989B4" stop-opacity="0"/>
<stop offset="0.9994" stop-color="#53FFEE"/>
</linearGradient>
<linearGradient id="paint57_linear_98_340" x1="230.527" y1="62.9575" x2="243.388" y2="40.6823" gradientUnits="userSpaceOnUse">
<stop stop-color="#0989B4" stop-opacity="0"/>
<stop offset="0.9994" stop-color="#53FFEE"/>
</linearGradient>
<linearGradient id="paint58_linear_98_340" x1="96.5272" y1="134.958" x2="109.388" y2="112.682" gradientUnits="userSpaceOnUse">
<stop stop-color="#0989B4" stop-opacity="0"/>
<stop offset="0.9994" stop-color="#53FFEE"/>
</linearGradient>
<linearGradient id="paint59_linear_98_340" x1="156.39" y1="17.2154" x2="165.847" y2="41.1349" gradientUnits="userSpaceOnUse">
<stop stop-color="#0989B4" stop-opacity="0"/>
<stop offset="0.9994" stop-color="#53FFEE"/>
</linearGradient>
<linearGradient id="paint60_linear_98_340" x1="118.527" y1="42.9575" x2="131.388" y2="20.6823" gradientUnits="userSpaceOnUse">
<stop stop-color="#0989B4" stop-opacity="0"/>
<stop offset="0.9994" stop-color="#53FFEE"/>
</linearGradient>
<linearGradient id="paint61_linear_98_340" x1="51.4396" y1="42.4175" x2="58.0968" y2="67.2623" gradientUnits="userSpaceOnUse">
<stop stop-color="#0989B4" stop-opacity="0"/>
<stop offset="0.9994" stop-color="#53FFEE"/>
</linearGradient>
<linearGradient id="paint62_linear_98_340" x1="59.0495" y1="105.435" x2="56.4139" y2="79.8488" gradientUnits="userSpaceOnUse">
<stop stop-color="#0989B4" stop-opacity="0"/>
<stop offset="0.9994" stop-color="#53FFEE"/>
</linearGradient>
<linearGradient id="paint63_linear_98_340" x1="50.368" y1="114.226" x2="70.3313" y2="130.445" gradientUnits="userSpaceOnUse">
<stop stop-color="#0989B4" stop-opacity="0"/>
<stop offset="0.9994" stop-color="#53FFEE"/>
</linearGradient>
<linearGradient id="paint64_linear_98_340" x1="84.3529" y1="129.211" x2="104.316" y2="145.429" gradientUnits="userSpaceOnUse">
<stop stop-color="#0989B4" stop-opacity="0"/>
<stop offset="0.9994" stop-color="#53FFEE"/>
</linearGradient>
<linearGradient id="paint65_linear_98_340" x1="322.735" y1="37.1733" x2="335.239" y2="15.5159" gradientUnits="userSpaceOnUse">
<stop stop-color="#0989B4" stop-opacity="0"/>
<stop offset="0.9994" stop-color="#53FFEE"/>
</linearGradient>
<linearGradient id="paint66_linear_98_340" x1="308.66" y1="35.0703" x2="290.273" y2="22.1226" gradientUnits="userSpaceOnUse">
<stop stop-color="#0989B4" stop-opacity="0"/>
<stop offset="0.9994" stop-color="#53FFEE"/>
</linearGradient>
<linearGradient id="paint67_linear_98_340" x1="327.134" y1="50.8079" x2="309.671" y2="68.2714" gradientUnits="userSpaceOnUse">
<stop stop-color="#0989B4" stop-opacity="0"/>
<stop offset="0.9994" stop-color="#53FFEE"/>
</linearGradient>
<clipPath id="clip0_98_340">
<rect width="28" height="28" fill="white" transform="matrix(-1 0 0 1 263 79)"/>
</clipPath>
<clipPath id="clip1_98_340">
<rect width="25" height="25" fill="white" transform="matrix(-1 0 0 1 272 19)"/>
</clipPath>
<clipPath id="clip2_98_340">
<rect width="27.0825" height="27.0825" fill="white" transform="matrix(0.138487 0.990364 0.990364 -0.138487 165.064 82.627)"/>
</clipPath>
<clipPath id="clip3_98_340">
<rect width="38" height="38" fill="white" transform="matrix(0.993981 0.109549 0.109549 -0.993981 105.481 121.252)"/>
</clipPath>
<clipPath id="clip4_98_340">
<rect width="24.9294" height="24.9294" fill="white" transform="matrix(0.138487 0.990364 0.990364 -0.138487 9.21265 10.4521)"/>
</clipPath>
<clipPath id="clip5_98_340">
<rect width="24.9294" height="24.9294" fill="white" transform="matrix(-0.944158 0.329494 0.329494 0.944158 30.9451 77.1948)"/>
</clipPath>
<clipPath id="clip6_98_340">
<rect width="24.9294" height="24.9294" fill="white" transform="matrix(-0.994216 -0.107396 -0.107396 0.994216 37.0146 44.0166)"/>
</clipPath>
<clipPath id="clip7_98_340">
<rect width="24.9294" height="24.9294" fill="white" transform="matrix(0.875526 -0.483171 -0.483171 -0.875526 18.3928 144.006)"/>
</clipPath>
<clipPath id="clip8_98_340">
<rect width="25.9763" height="25.9763" fill="white" transform="matrix(-0.965926 0.258819 0.258819 0.965926 65.0913 6.94824)"/>
</clipPath>
<clipPath id="clip9_98_340">
<rect width="25.9763" height="25.9763" fill="white" transform="matrix(-0.965926 0.258819 0.258819 0.965926 97.0911 9)"/>
</clipPath>
<clipPath id="clip10_98_340">
<rect width="25.9763" height="25.9763" fill="white" transform="matrix(-0.965926 0.258819 0.258819 0.965926 102.091 42)"/>
</clipPath>
<clipPath id="clip11_98_340">
<rect width="25.9763" height="25.9763" fill="white" transform="matrix(-0.965926 0.258819 0.258819 0.965926 212.091 9)"/>
</clipPath>
<clipPath id="clip12_98_340">
<rect width="25.9763" height="25.9763" fill="white" transform="matrix(-0.965926 0.258819 0.258819 0.965926 141.091 48)"/>
</clipPath>
<clipPath id="clip13_98_340">
<rect width="25.9763" height="25.9763" fill="white" transform="matrix(-0.965926 0.258819 0.258819 0.965926 296.091 65)"/>
</clipPath>
<clipPath id="clip14_98_340">
<rect width="25.9763" height="25.9763" fill="white" transform="matrix(-0.965926 0.258819 0.258819 0.965926 242.091 29)"/>
</clipPath>
<clipPath id="clip15_98_340">
<rect width="25.9763" height="25.9763" fill="white" transform="matrix(-0.965926 0.258819 0.258819 0.965926 170.091 55)"/>
</clipPath>
<clipPath id="clip16_98_340">
<rect width="25.9763" height="25.9763" fill="white" transform="matrix(-0.965926 0.258819 0.258819 0.965926 237.091 90)"/>
</clipPath>
<clipPath id="clip17_98_340">
<rect width="25.9763" height="25.9763" fill="white" transform="matrix(-0.965926 0.258819 0.258819 0.965926 196.091 90)"/>
</clipPath>
<clipPath id="clip18_98_340">
<rect width="25.9763" height="25.9763" fill="white" transform="matrix(-0.965926 0.258819 0.258819 0.965926 150.091 91)"/>
</clipPath>
<clipPath id="clip19_98_340">
<rect width="25.9763" height="25.9763" fill="white" transform="matrix(-0.965926 0.258819 0.258819 0.965926 256.091 3)"/>
</clipPath>
<clipPath id="clip20_98_340">
<rect width="25.9763" height="25.9763" fill="white" transform="matrix(-0.965926 0.258819 0.258819 0.965926 287.091 3)"/>
</clipPath>
<clipPath id="clip21_98_340">
<rect width="25.9763" height="25.9763" fill="white" transform="matrix(-0.965926 0.258819 0.258819 0.965926 150.091 3)"/>
</clipPath>
<clipPath id="clip22_98_340">
<rect width="25.9763" height="25.9763" fill="white" transform="matrix(-0.965926 0.258819 0.258819 0.965926 118.091 0)"/>
</clipPath>
<clipPath id="clip23_98_340">
<rect width="25.9763" height="25.9763" fill="white" transform="matrix(-0.965926 0.258819 0.258819 0.965926 185.091 50)"/>
</clipPath>
<clipPath id="clip24_98_340">
<rect width="25.9763" height="25.9763" fill="white" transform="matrix(-0.965926 0.258819 0.258819 0.965926 328.091 3)"/>
</clipPath>
<clipPath id="clip25_98_340">
<rect width="25.9763" height="25.9763" fill="white" transform="matrix(-0.965926 0.258819 0.258819 0.965926 211.091 77)"/>
</clipPath>
<clipPath id="clip26_98_340">
<rect width="25.9763" height="25.9763" fill="white" transform="matrix(-0.965926 0.258819 0.258819 0.965926 188.091 32)"/>
</clipPath>
<clipPath id="clip27_98_340">
<rect width="25.9763" height="25.9763" fill="white" transform="matrix(-0.965926 0.258819 0.258819 0.965926 78.0911 58)"/>
</clipPath>
<clipPath id="clip28_98_340">
<rect width="25.9763" height="25.9763" fill="white" transform="matrix(-0.965926 0.258819 0.258819 0.965926 45.0911 28)"/>
</clipPath>
<clipPath id="clip29_98_340">
<rect width="25.9763" height="25.9763" fill="white" transform="matrix(-0.965926 0.258819 0.258819 0.965926 29.0911 91)"/>
</clipPath>
<clipPath id="clip30_98_340">
<rect width="25.9763" height="25.9763" fill="white" transform="matrix(-0.965926 0.258819 0.258819 0.965926 335.091 74)"/>
</clipPath>
<clipPath id="clip31_98_340">
<rect width="25.9763" height="25.9763" fill="white" transform="matrix(-0.965926 0.258819 0.258819 0.965926 272.091 90)"/>
</clipPath>
<clipPath id="clip32_98_340">
<rect width="25.9763" height="25.9763" fill="white" transform="matrix(-0.965926 0.258819 0.258819 0.965926 71.0911 5)"/>
</clipPath>
<clipPath id="clip33_98_340">
<rect width="25.9763" height="25.9763" fill="white" transform="matrix(-0.965926 0.258819 0.258819 0.965926 241.091 3)"/>
</clipPath>
<clipPath id="clip34_98_340">
<rect width="25.9763" height="25.9763" fill="white" transform="matrix(-0.965926 0.258819 0.258819 0.965926 107.091 75)"/>
</clipPath>
<clipPath id="clip35_98_340">
<rect width="25.9763" height="25.9763" fill="white" transform="matrix(-0.965926 0.258819 0.258819 0.965926 217.091 42)"/>
</clipPath>
<clipPath id="clip36_98_340">
<rect width="25.9763" height="25.9763" fill="white" transform="matrix(-0.965926 0.258819 0.258819 0.965926 146.091 81)"/>
</clipPath>
<clipPath id="clip37_98_340">
<rect width="25.9763" height="25.9763" fill="white" transform="matrix(-0.965926 0.258819 0.258819 0.965926 301.091 98)"/>
</clipPath>
<clipPath id="clip38_98_340">
<rect width="25.9763" height="25.9763" fill="white" transform="matrix(-0.965926 0.258819 0.258819 0.965926 247.091 62)"/>
</clipPath>
<clipPath id="clip39_98_340">
<rect width="25.9763" height="25.9763" fill="white" transform="matrix(-0.965926 0.258819 0.258819 0.965926 175.091 88)"/>
</clipPath>
<clipPath id="clip40_98_340">
<rect width="25.9763" height="25.9763" fill="white" transform="matrix(-0.965926 0.258819 0.258819 0.965926 242.091 123)"/>
</clipPath>
<clipPath id="clip41_98_340">
<rect width="25.9763" height="25.9763" fill="white" transform="matrix(-0.965926 0.258819 0.258819 0.965926 201.091 123)"/>
</clipPath>
<clipPath id="clip42_98_340">
<rect width="25.9763" height="25.9763" fill="white" transform="matrix(-0.965926 0.258819 0.258819 0.965926 155.091 124)"/>
</clipPath>
<clipPath id="clip43_98_340">
<rect width="25.9763" height="25.9763" fill="white" transform="matrix(-0.965926 0.258819 0.258819 0.965926 261.091 36)"/>
</clipPath>
<clipPath id="clip44_98_340">
<rect width="25.9763" height="25.9763" fill="white" transform="matrix(-0.965926 0.258819 0.258819 0.965926 292.091 36)"/>
</clipPath>
<clipPath id="clip45_98_340">
<rect width="25.9763" height="25.9763" fill="white" transform="matrix(-0.965926 0.258819 0.258819 0.965926 155.091 36)"/>
</clipPath>
<clipPath id="clip46_98_340">
<rect width="25.9763" height="25.9763" fill="white" transform="matrix(-0.965926 0.258819 0.258819 0.965926 123.091 33)"/>
</clipPath>
<clipPath id="clip47_98_340">
<rect width="25.9763" height="25.9763" fill="white" transform="matrix(-0.965926 0.258819 0.258819 0.965926 190.091 83)"/>
</clipPath>
<clipPath id="clip48_98_340">
<rect width="25.9763" height="25.9763" fill="white" transform="matrix(-0.965926 0.258819 0.258819 0.965926 333.091 36)"/>
</clipPath>
<clipPath id="clip49_98_340">
<rect width="25.9763" height="25.9763" fill="white" transform="matrix(-0.965926 0.258819 0.258819 0.965926 216.091 110)"/>
</clipPath>
<clipPath id="clip50_98_340">
<rect width="25.9763" height="25.9763" fill="white" transform="matrix(-0.965926 0.258819 0.258819 0.965926 193.091 65)"/>
</clipPath>
<clipPath id="clip51_98_340">
<rect width="25.9763" height="25.9763" fill="white" transform="matrix(-0.965926 0.258819 0.258819 0.965926 83.0911 91)"/>
</clipPath>
<clipPath id="clip52_98_340">
<rect width="25.9763" height="25.9763" fill="white" transform="matrix(-0.965926 0.258819 0.258819 0.965926 50.0911 61)"/>
</clipPath>
<clipPath id="clip53_98_340">
<rect width="25.9763" height="25.9763" fill="white" transform="matrix(-0.965926 0.258819 0.258819 0.965926 34.0911 124)"/>
</clipPath>
<clipPath id="clip54_98_340">
<rect width="25.9763" height="25.9763" fill="white" transform="matrix(-0.965926 0.258819 0.258819 0.965926 340.091 107)"/>
</clipPath>
<clipPath id="clip55_98_340">
<rect width="25.9763" height="25.9763" fill="white" transform="matrix(-0.965926 0.258819 0.258819 0.965926 277.091 123)"/>
</clipPath>
<clipPath id="clip56_98_340">
<rect width="25.9763" height="25.9763" fill="white" transform="matrix(-0.965926 0.258819 0.258819 0.965926 76.0911 38)"/>
</clipPath>
<clipPath id="clip57_98_340">
<rect width="25.9763" height="25.9763" fill="white" transform="matrix(-0.965926 0.258819 0.258819 0.965926 246.091 36)"/>
</clipPath>
<clipPath id="clip58_98_340">
<rect width="25.9763" height="25.9763" fill="white" transform="matrix(-0.965926 0.258819 0.258819 0.965926 112.091 108)"/>
</clipPath>
<clipPath id="clip59_98_340">
<rect width="25.9763" height="25.9763" fill="white" transform="matrix(0.397578 -0.917568 -0.917568 -0.397578 167.835 46.1626)"/>
</clipPath>
<clipPath id="clip60_98_340">
<rect width="25.9763" height="25.9763" fill="white" transform="matrix(-0.965926 0.258819 0.258819 0.965926 134.091 16)"/>
</clipPath>
<clipPath id="clip61_98_340">
<rect width="25.9763" height="25.9763" fill="white" transform="matrix(0.5 -0.866025 -0.866025 -0.5 59.4961 72.4844)"/>
</clipPath>
<clipPath id="clip62_98_340">
<rect width="25.9763" height="25.9763" fill="white" transform="matrix(-0.630929 0.77584 0.77584 0.630929 55.8599 74.4707)"/>
</clipPath>
<clipPath id="clip63_98_340">
<rect width="25.9763" height="25.9763" fill="white" transform="matrix(-0.102944 -0.994687 -0.994687 0.102944 74.5276 133.854)"/>
</clipPath>
<clipPath id="clip64_98_340">
<rect width="25.9763" height="25.9763" fill="white" transform="matrix(-0.102944 -0.994687 -0.994687 0.102944 108.512 148.838)"/>
</clipPath>
<clipPath id="clip65_98_340">
<rect width="25.2557" height="25.2557" fill="white" transform="matrix(-0.965926 0.258819 0.258819 0.965926 337.867 10.9639)"/>
</clipPath>
<clipPath id="clip66_98_340">
<rect width="22.7114" height="22.7114" fill="white" transform="matrix(0.171034 0.985265 0.985265 -0.171034 286.408 19.4009)"/>
</clipPath>
<clipPath id="clip67_98_340">
<rect width="24.9419" height="24.9419" fill="white" transform="matrix(1 0 0 -1 306 71.9419)"/>
</clipPath>
</defs>
</svg>
